<?xml version="1.0" encoding="UTF-8" standalone="no"?>
<svg
   xmlns:dc="http://purl.org/dc/elements/1.1/"
   xmlns:cc="http://creativecommons.org/ns#"
   xmlns:rdf="http://www.w3.org/1999/02/22-rdf-syntax-ns#"
   xmlns:svg="http://www.w3.org/2000/svg"
   xmlns="http://www.w3.org/2000/svg"
   xmlns:xlink="http://www.w3.org/1999/xlink"
   version="1.1"
   width="220pt"
   height="60pt"
   viewBox="0 0 220 60"
   id="svg172">
  <metadata
     id="metadata178">
    <rdf:RDF>
      <cc:Work
         rdf:about="">
        <dc:format>image/svg+xml</dc:format>
        <dc:type
           rdf:resource="http://purl.org/dc/dcmitype/StillImage" />
        <dc:title></dc:title>
      </cc:Work>
    </rdf:RDF>
  </metadata>
  <defs
     id="defs176" />
  <g
     enable-background="new"
     id="g170">
    <clipPath
       id="cp0">
      <path
         transform="matrix(1,0,0,-1,0,60)"
         d="M 0 0 L 220 0 L 220 60 L 0 60 Z "
         id="path95" />
    </clipPath>
    <g
       clip-path="url(#cp0)"
       id="g168">
      <symbol
         id="font_1_2">
        <path
           d="M .41300003 .080000009 C .39033339 .052666669 .3646667 .032333334 .33600004 .019000002 C .30733336 .006333334 .27633337 0 .24300002 0 C .20766668 0 .17500001 .0059999998 .14500001 .018 C .11500001 .03 .08933333 .046666668 .068 .068 C .04666667 .09 .030000002 .115666668 .018000003 .145 C .006000001 .175 0 .20766668 0 .243 C 0 .27833335 .006000001 .31066669 .018000003 .34 C .030000002 .37 .04666667 .3956667 .068 .41700004 C .08933333 .439 .11500001 .456 .14500001 .46800003 C .17500001 .48000003 .20766668 .48600004 .24300002 .48600004 C .27700005 .48600004 .30833338 .479 .33700005 .465 C .36633338 .451 .39233337 .43133334 .41500003 .40600003 L .36700005 .37 C .34966669 .38933335 .3306667 .40433336 .31000004 .41500003 C .28933335 .42633335 .26700003 .432 .24300002 .432 C .21500002 .432 .18966669 .42700003 .16700001 .41700004 C .14433335 .40700004 .125 .39333336 .109 .37600003 C .093 .35933338 .08066667 .33933334 .072 .316 C .064 .29333333 .060000007 .26900003 .060000007 .243 C .060000007 .21700001 .064 .19233334 .072 .169 C .08066667 .14633334 .093 .12633334 .109 .109000008 C .125 .09233334 .14433335 .079 .16700001 .069000009 C .18966669 .059000005 .21500002 .054000006 .24300002 .054000006 C .26833336 .054000006 .29133336 .059666676 .31200005 .071 C .33333338 .083000008 .3516667 .098666679 .36700005 .11800001 L .41300003 .080000009 Z "
           id="path98" />
      </symbol>
      <symbol
         id="font_1_4">
        <path
           d="M 0 .75600007 L .060000004 .75600007 L .060000004 0 L 0 0 L 0 .75600007 Z "
           id="path101" />
      </symbol>
      <use
         xlink:href="#font_1_2"
         transform="matrix(36,0,0,-36,13.045998,40.432)"
         id="use104"
         style="fill:#e5e5e5;fill-opacity:1" />
      <use
         xlink:href="#font_1_4"
         transform="matrix(36,0,0,-36,31.657999,40)"
         id="use106"
         style="fill:#e5e5e5;fill-opacity:1" />
      <symbol
         id="font_2_1">
        <path
           d="M .024999999 .428 C .050333334 .45133338 .07966667 .4686667 .113000009 .48000003 C .14633334 .492 .17966669 .49800004 .21300002 .49800004 C .24766666 .49800004 .27733333 .49366669 .302 .485 C .32733337 .47633336 .34800006 .4646667 .36400003 .45000003 C .38000003 .43533335 .39166669 .41833333 .39900006 .39900003 C .40700004 .38033334 .411 .36066667 .411 .34 L .411 .098000008 C .411 .08133334 .41133333 .06600001 .412 .052 C .4126667 .038000004 .41366674 .024666667 .41500003 .012 L .33500005 .012 C .33300004 .036000004 .33200003 .060000004 .33200003 .08400001 L .33000005 .08400001 C .31000004 .05333334 .28633336 .03166667 .259 .019000002 C .23166669 .006333334 .2 0 .164 0 C .142 0 .121000017 .0029999999 .10100001 .009 C .08100001 .015 .06333333 .023999999 .048 .036 C .033333336 .048000006 .021666667 .06266668 .013 .080000009 C .0043333338 .09800001 0 .11866667 0 .142 C 0 .17266667 .0066666679 .19833334 .020000004 .21900001 C .034 .23966666 .052666669 .25633333 .076000008 .269 C .1 .28233335 .12766667 .29166667 .15900001 .29700003 C .191 .303 .22500003 .306 .26100005 .306 L .32700003 .306 L .32700003 .326 C .32700003 .33800004 .32466669 .35000003 .32 .36200003 C .31533335 .37400005 .30833338 .38466669 .29900003 .39400003 C .28966669 .404 .27800004 .41166667 .264 .41700004 C .25 .423 .23333335 .42600004 .214 .42600004 C .19666668 .42600004 .18133335 .42433334 .16800002 .421 C .15533334 .41766668 .14366667 .41333334 .133 .40800003 C .122333329 .40333335 .11266667 .3976667 .104 .391 C .09533334 .38433335 .087000008 .37800003 .079 .372 L .024999999 .428 M .27899999 .24000001 C .25766669 .24000001 .23566669 .23866667 .21300002 .236 C .191 .23400001 .17066668 .22966667 .15200001 .223 C .134 .21633333 .118999999 .207 .10700001 .19500001 C .09566667 .18300002 .09 .16766668 .09 .149 C .09 .12166667 .099 .102 .117 .09 C .13566667 .078 .16066669 .072000008 .19200002 .072000008 C .21666669 .072000008 .23766668 .076000008 .255 .08400001 C .27233336 .09266666 .28633336 .10366667 .297 .117000009 C .3076667 .13033334 .31533335 .145 .32 .161 C .32466669 .17766667 .32700003 .194 .32700003 .21000001 L .32700003 .24000001 L .27899999 .24000001 Z "
           id="path108" />
      </symbol>
      <symbol
         id="font_2_2">
        <path
           d="M .021000002 .47400005 L .111 .47400005 L .111 0 L .021000002 0 L .021000002 .47400005 M 0 .64400008 C 0 .662 .006333335 .67733338 .019000005 .69000008 C .032333334 .7033334 .047999998 .71000006 .066 .71000006 C .08399999 .71000006 .09933332 .7033334 .112 .69000008 C .12533333 .67733338 .132 .662 .132 .64400008 C .132 .62600007 .12533333 .6103334 .112 .597 C .09933332 .58433338 .08399999 .578 .066 .578 C .047999998 .578 .032333334 .58433338 .019000005 .597 C .006333335 .6103334 0 .62600007 0 .64400008 Z "
           id="path111" />
      </symbol>
      <use
         xlink:href="#font_2_1"
         transform="matrix(36,0,0,-36,38.677999,40.432)"
         fill="#f27d09"
         id="use114"
         style="fill:#ffffff;fill-opacity:1" />
      <use
         xlink:href="#font_2_2"
         transform="matrix(36,0,0,-36,57.686,40)"
         fill="#f27d09"
         id="use116"
         style="fill:#ffffff;fill-opacity:1" />
      <symbol
         id="font_3_1">
        <path
           d="M 0 0 Z "
           id="path118" />
      </symbol>
      <use
         xlink:href="#font_3_1"
         transform="matrix(2,0,0,-2,64.382,40)"
         fill="#797979"
         id="use121" />
      <symbol
         id="font_1_7">
        <path
           d="M .0050000029 .33200003 C .0050000029 .34066669 .004666669 .35100005 .0040000008 .363 C .0033333328 .3756667 .002666667 .38833336 .002000004 .40100003 C .002000004 .4136667 .0016666701 .42533336 .001000002 .43600003 C .000333334 .44733335 0 .456 0 .462 L .060000004 .462 C .06066667 .4446667 .061000006 .428 .061000006 .41200004 C .06166667 .39600004 .06266668 .3856667 .06400001 .381 C .079333338 .40833334 .099 .4306667 .12300001 .448 C .14700002 .46533338 .17633336 .47400008 .21100001 .47400005 C .21700001 .47400008 .22266668 .47333337 .228 .47200004 C .23400001 .47133336 .24000001 .47033335 .246 .469 L .23900001 .41000004 C .231 .4126667 .22333335 .41400004 .216 .41400004 C .19 .41400004 .16733332 .4096667 .148 .40100003 C .12933333 .39300005 .113666679 .3816667 .10100001 .367 C .08900001 .35233335 .080000009 .33500005 .074 .31500004 C .067999999 .2956667 .065 .27466668 .065 .252 L .065 0 L .0050000029 0 L .0050000029 .33200003 Z "
           id="path123" />
      </symbol>
      <use
         xlink:href="#font_1_7"
         transform="matrix(36,0,0,-36,67.673999,40)"
         id="use126"
         style="fill:#e5e5e5;fill-opacity:1" />
      <use
         xlink:href="#font_3_1"
         transform="matrix(4,0,0,-4,76.962009,40)"
         id="use128" />
      <symbol
         id="font_1_8">
        <path
           d="M 0 .462 L .068 .462 L .22200002 .065000008 L .37200005 .462 L .43300004 .462 L .251 0 L .18900001 0 L 0 .462 Z "
           id="path130" />
      </symbol>
      <symbol
         id="font_1_6">
        <path
           d="M 0 .243 C 0 .27833335 .006000001 .31066669 .018000003 .34 C .030000002 .37 .04666667 .3956667 .068 .41700004 C .08933333 .439 .11500001 .456 .14500001 .46800003 C .17500001 .48000003 .20766668 .48600004 .24300002 .48600004 C .27833338 .48600004 .3106667 .48000003 .34000004 .46800003 C .37000004 .456 .3956667 .439 .41700004 .41700004 C .439 .3956667 .456 .37 .46800003 .34 C .48000003 .31066669 .48600004 .27833335 .48600004 .243 C .48600004 .20766668 .48000003 .175 .46800003 .145 C .456 .115666668 .439 .09 .41700004 .068 C .3956667 .046666668 .37000004 .03 .34000004 .018 C .3106667 .0059999998 .27833338 0 .24300002 0 C .20766668 0 .17500001 .0059999998 .14500001 .018 C .11500001 .03 .08933333 .046666668 .068 .068 C .04666667 .09 .030000002 .115666668 .018000003 .145 C .006000001 .175 0 .20766668 0 .243 M .060000007 .243 C .060000007 .21700001 .064 .19233334 .072 .169 C .08066667 .14633334 .093 .12633334 .109 .109000008 C .125 .09233334 .14433335 .079 .16700001 .069000009 C .18966669 .059000005 .21500002 .054000006 .24300002 .054000006 C .27100004 .054000006 .29633335 .059000005 .31900005 .069000009 C .3416667 .079 .36100004 .09233334 .37700004 .109000008 C .39300005 .12633334 .405 .14633334 .41300003 .169 C .4216667 .19233334 .42600004 .21700001 .42600004 .243 C .42600004 .26900003 .4216667 .29333333 .41300003 .316 C .405 .33933334 .39300005 .35933338 .37700004 .37600003 C .36100004 .39333336 .3416667 .40700004 .31900005 .41700004 C .29633335 .42700003 .27100004 .432 .24300002 .432 C .21500002 .432 .18966669 .42700003 .16700001 .41700004 C .14433335 .40700004 .125 .39333336 .109 .37600003 C .093 .35933338 .08066667 .33933334 .072 .316 C .064 .29333333 .060000007 .26900003 .060000007 .243 Z "
           id="path133" />
      </symbol>
      <symbol
         id="font_1_9">
        <path
           d="M .19500001 .097 C .18366666 .067 .168 .043333334 .148 .025999994 C .128 .008666664 .10133334 0 .068 0 C .058000003 0 .048000006 .000999997 .038000004 .0029999912 C .028000003 .004333327 .018333335 .006333331 .009 .009000003 L .015000001 .065 C .023666667 .062333336 .032333334 .060000004 .041 .058 C .050333334 .055333336 .059666668 .054000006 .069000009 .054000006 C .07966667 .054000006 .08900001 .056333338 .097 .061000006 C .10566667 .06566667 .113 .071666669 .119 .078999999 C .125 .086333338 .13000001 .09466667 .134 .104 C .13866668 .11266667 .14266669 .12166667 .14600002 .13100001 L .18800001 .238 L 0 .702 L .067 .702 L .22000002 .31300003 L .36900003 .702 L .43300004 .702 L .19500001 .097 Z "
           id="path136" />
      </symbol>
      <symbol
         id="font_1_1">
        <path
           d="M .38 .206 C .38 .18333334 .38 .163 .38 .145 C .38066665 .127 .38133336 .110333349 .382 .095000009 C .38266669 .079666677 .38333337 .06533334 .384 .052 C .38533334 .03866667 .387 .025333336 .389 .012 L .333 .012 C .329 .03466667 .327 .059666676 .327 .087000008 L .325 .087000008 C .30766667 .057 .28599999 .035 .26 .021000002 C .23466666 .0070000009 .20233335 0 .16300002 0 C .143 0 .123333338 .0026666665 .104 .007999999 C .08466667 .012666668 .06733333 .020333335 .052000006 .031000002 C .036666674 .042333336 .024000004 .05666667 .014000002 .074 C .0046666676 .09133334 0 .112333338 0 .137 C 0 .17233332 .009 .20033334 .026999999 .221 C .045 .24166668 .067 .257 .09300001 .26700003 C .11966667 .2776667 .14766668 .28433336 .17700002 .287 C .20700002 .29033334 .23333335 .292 .256 .292 L .326 .292 L .326 .32000003 C .326 .36 .31366668 .38866673 .289 .40600003 C .26433335 .42333333 .23333335 .432 .19600003 .432 C .14266669 .432 .09566668 .41466669 .055000005 .38000003 L .02 .421 C .042 .44233335 .06933334 .45833335 .10200001 .469 C .13466668 .48033337 .16600001 .48600004 .19600003 .48600004 C .252 .48600004 .29666666 .4726667 .33 .446 C .36333335 .42 .38 .37766669 .38 .319 L .38 .206 M .26 .244 C .23466666 .244 .21000003 .24233334 .186 .23900001 C .16266668 .23566668 .14133334 .23000002 .12200001 .222 C .10333335 .214 .088333349 .20333334 .07700001 .19 C .06566667 .17666666 .06 .16000001 .06 .14 C .06 .126 .063 .113333348 .069000009 .102000009 C .07566667 .09133334 .084000017 .082333337 .09400001 .075 C .10400001 .068333338 .11500001 .063 .127 .059 C .13966668 .05566667 .15233334 .054000006 .165 .054000006 C .19700001 .054000006 .22333335 .058666674 .244 .068 C .26466669 .07733334 .28100003 .08933333 .293 .10400001 C .3056667 .119333337 .31433336 .13633333 .319 .155 C .32366667 .17433334 .326 .19366665 .326 .213 L .326 .244 L .26 .244 Z "
           id="path139" />
      </symbol>
      <symbol
         id="font_1_5">
        <path
           d="M .0050000029 .33200003 C .0050000029 .34066669 .004666669 .35100005 .0040000008 .363 C .0033333328 .3756667 .002666667 .38833336 .002000004 .40100003 C .002000004 .4136667 .0016666701 .42533336 .001000002 .43600003 C .000333334 .44733335 0 .456 0 .462 L .060000004 .462 C .06066667 .4446667 .061000006 .428 .061000006 .41200004 C .06166667 .39600004 .06266668 .3856667 .06400001 .381 L .067 .381 C .079 .40633337 .09900001 .428 .127 .446 C .15500002 .4646667 .18766667 .47400008 .22500001 .47400005 C .261 .47400008 .29033334 .46833337 .31300003 .45700003 C .33566667 .4456667 .35333333 .4306667 .366 .41200004 C .37933336 .39400003 .38833336 .37300004 .393 .349 C .39833335 .32500003 .40100003 .30033336 .40100003 .275 L .40100003 0 L .34100003 0 L .34100003 .272 C .341 .29066668 .3393334 .30866669 .33600004 .326 C .3326667 .344 .32666669 .36 .31800003 .374 C .31 .388 .29833333 .39900003 .283 .407 C .26833336 .41566668 .24900003 .42 .22500001 .42000003 C .20300001 .42 .18200003 .416 .16200002 .40800003 C .14266669 .40066669 .12566667 .38900004 .111 .37300004 C .097 .3576667 .08566668 .33800004 .07700001 .314 C .069 .29066668 .065 .263 .065 .231 L .065 0 L .0050000029 0 L .0050000029 .33200003 Z "
           id="path142" />
      </symbol>
      <symbol
         id="font_1_3">
        <path
           d="M .43400005 .09900001 C .4106667 .06366667 .3816667 .038333339 .34700004 .023000002 C .31300006 .0076666676 .27533338 0 .23400001 0 C .19866668 0 .16666667 .0059999998 .138 .018 C .10933334 .03 .08466667 .046666668 .06400001 .068 C .04333334 .09 .027333335 .115666668 .015999999 .145 C .005333333 .175 0 .208 0 .244 C 0 .27866668 .005666667 .31066669 .017 .34 C .028333337 .36933337 .04433334 .39466668 .065 .416 C .085666667 .438 .10999999 .455 .138 .467 C .16600001 .4796667 .19700001 .48600004 .23100002 .48600004 C .26633338 .48600004 .29733337 .4796667 .32400004 .467 C .35133339 .455 .37400005 .43866668 .39200003 .418 C .4106667 .398 .42466674 .375 .43400005 .349 C .4433334 .32299999 .44800005 .29666666 .44800005 .27 L .44800005 .228 L .060000007 .228 C .060000007 .21533335 .062333336 .199 .067 .179 C .072333339 .15966667 .08166667 .14066668 .095 .12200001 C .10833334 .10333333 .126 .087333347 .148 .074 C .17066668 .06066667 .19966668 .054000006 .235 .054000006 C .2656667 .054000006 .29533337 .06133334 .32400004 .076000008 C .3526667 .090666677 .3746667 .11066667 .39000006 .136 L .43400005 .09900001 M .38800005 .282 C .38800005 .3026667 .38366673 .32200004 .37500004 .34 C .367 .358 .35566674 .37366668 .34100003 .38700003 C .32700003 .40100003 .31000004 .41200004 .29000003 .42000003 C .2706667 .428 .25000004 .432 .228 .432 C .19533335 .432 .168 .42533336 .146 .412 C .12466667 .3986667 .10766667 .38333337 .095 .366 C .082333337 .34866668 .07333334 .33166669 .068 .315 C .06266668 .299 .060000007 .28800003 .060000007 .282 L .38800005 .282 Z "
           id="path145" />
      </symbol>
      <use
         xlink:href="#font_1_8"
         transform="matrix(36,0,0,-36,78.686,40)"
         id="use148"
         style="fill:#e5e5e5;fill-opacity:1" />
      <use
         xlink:href="#font_1_6"
         transform="matrix(36,0,0,-36,96.758,40.432)"
         id="use150"
         style="fill:#e5e5e5;fill-opacity:1" />
      <use
         xlink:href="#font_1_9"
         transform="matrix(36,0,0,-36,116.738,48.64)"
         id="use152"
         style="fill:#e5e5e5;fill-opacity:1" />
      <use
         xlink:href="#font_1_1"
         transform="matrix(36,0,0,-36,134.98999,40.432)"
         id="use154"
         style="fill:#e5e5e5;fill-opacity:1" />
      <use
         xlink:href="#font_1_5"
         transform="matrix(36,0,0,-36,154.25,40)"
         id="use156"
         style="fill:#e5e5e5;fill-opacity:1" />
      <use
         xlink:href="#font_1_2"
         transform="matrix(36,0,0,-36,173.51001,40.432)"
         id="use158"
         style="fill:#e5e5e5;fill-opacity:1" />
      <use
         xlink:href="#font_1_3"
         transform="matrix(36,0,0,-36,190.826,40.432)"
         id="use160"
         style="fill:#e5e5e5;fill-opacity:1" />
      <path
         transform="matrix(2,0,0,2,-34,6)"
         stroke-width="1.25"
         stroke-linecap="square"
         stroke-miterlimit="10"
         stroke-linejoin="miter"
         fill="none"
         stroke="#f27d05"
         d="M 23.51563 19.9375 L 34.02301 19.9375 "
         id="path162"
         style="fill:#f27d09;fill-opacity:1;stroke:#ffffff;stroke-opacity:1" />
      <path
         transform="matrix(2,0,0,2,-34,6)"
         stroke-width="1.25"
         stroke-linecap="square"
         stroke-miterlimit="10"
         stroke-linejoin="miter"
         fill="none"
         stroke="#f27d05"
         d="M 50.27344 19.9375 L 73.5777 19.9375 "
         id="path164"
         style="fill:#f27d09;fill-opacity:1;stroke:#ffffff;stroke-opacity:1" />
      <path
         transform="matrix(2,0,0,2,-34,6)"
         stroke-width="1.25"
         stroke-linecap="square"
         stroke-miterlimit="10"
         stroke-linejoin="miter"
         fill="none"
         stroke="#f27d05"
         d="M 81.49219 19.9375 L 120.3355 19.9375 "
         id="path166"
         style="fill:#f27d09;fill-opacity:1;stroke:#ffffff;stroke-opacity:1" />
    </g>
  </g>
</svg>
