<svg id="svg" version="1.1" xmlns="http://www.w3.org/2000/svg" xmlns:xlink="http://www.w3.org/1999/xlink" width="400" height="95.26592635885447" viewBox="0, 0, 400,95.26592635885447"><g id="svgg"><path id="path0" d="M33.083 4.097 C 32.717 4.220,31.865 4.486,31.191 4.687 C 30.033 5.033,27.678 6.298,27.080 6.896 C 26.930 7.047,26.736 7.126,26.649 7.072 C 26.563 7.019,26.512 7.050,26.538 7.141 C 26.592 7.340,24.643 9.258,24.446 9.200 C 24.370 9.177,24.353 9.230,24.407 9.318 C 24.461 9.405,24.321 9.748,24.096 10.080 C 23.871 10.412,23.598 10.961,23.488 11.300 C 23.237 12.080,23.019 12.354,22.683 12.314 C 22.536 12.296,22.304 12.325,22.167 12.378 C 22.029 12.431,21.617 12.564,21.250 12.673 C 20.883 12.781,20.412 12.978,20.204 13.109 C 19.995 13.240,19.732 13.295,19.620 13.230 C 19.508 13.166,19.470 13.173,19.536 13.246 C 19.661 13.383,18.210 14.581,17.917 14.582 C 17.825 14.583,17.749 14.658,17.748 14.750 C 17.747 14.842,17.517 15.254,17.237 15.667 C 16.680 16.487,16.167 17.523,16.167 17.827 C 16.167 17.933,16.108 17.984,16.037 17.939 C 15.965 17.895,15.922 18.060,15.940 18.305 C 15.958 18.550,15.979 21.094,15.986 23.958 L 16.000 29.167 25.244 29.167 L 34.489 29.167 35.078 29.756 L 35.667 30.344 35.667 36.422 L 35.667 42.500 36.167 42.500 L 36.667 42.500 36.667 36.167 L 36.667 29.833 38.502 29.833 L 40.338 29.833 40.294 24.708 L 40.250 19.583 33.333 19.583 L 26.417 19.583 26.375 21.250 C 26.329 23.123,26.231 23.726,25.997 23.581 C 25.909 23.527,25.878 23.589,25.928 23.719 C 26.295 24.676,23.895 24.860,23.052 23.940 L 22.500 23.338 22.500 20.159 C 22.500 18.107,22.558 17.016,22.665 17.082 C 22.760 17.141,22.787 17.073,22.729 16.923 C 22.609 16.608,22.968 16.127,23.211 16.278 C 23.309 16.338,23.335 16.305,23.271 16.201 C 23.034 15.817,23.870 15.667,26.239 15.667 L 28.667 15.667 28.670 13.208 C 28.674 10.608,29.007 9.172,29.557 9.383 C 29.680 9.431,29.886 9.394,30.015 9.302 C 30.199 9.171,30.185 9.156,29.950 9.232 C 29.773 9.290,29.691 9.262,29.752 9.164 C 29.904 8.918,31.358 9.015,31.800 9.301 C 32.549 9.786,32.667 10.299,32.667 13.075 L 32.667 15.667 36.509 15.667 L 40.352 15.667 40.322 11.419 C 40.305 9.035,40.228 7.212,40.146 7.263 C 40.066 7.312,40.000 7.284,40.000 7.200 C 40.000 7.115,39.819 6.780,39.598 6.453 C 39.376 6.127,39.226 5.817,39.264 5.764 C 39.302 5.710,39.285 5.702,39.226 5.746 C 39.167 5.790,38.866 5.604,38.556 5.332 C 38.247 5.060,37.808 4.792,37.581 4.735 C 37.352 4.677,37.217 4.553,37.277 4.456 C 37.339 4.356,37.305 4.331,37.196 4.398 C 37.093 4.462,36.687 4.427,36.296 4.319 C 35.904 4.211,35.133 4.123,34.583 4.124 L 33.583 4.125 34.417 4.005 L 35.250 3.886 34.500 3.880 C 34.087 3.876,33.450 3.974,33.083 4.097 M50.042 3.953 C 50.294 3.991,50.706 3.991,50.958 3.953 C 51.210 3.915,51.004 3.883,50.500 3.883 C 49.996 3.883,49.790 3.915,50.042 3.953 M48.776 4.208 C 48.818 4.277,48.717 4.333,48.552 4.333 C 47.438 4.334,45.437 5.863,44.916 7.112 C 44.466 8.189,44.486 7.298,44.497 25.618 L 44.500 29.819 45.792 29.868 L 47.083 29.917 47.127 36.208 L 47.171 42.500 48.648 42.500 C 49.747 42.500,50.178 42.437,50.330 42.254 C 50.703 41.805,51.638 41.750,52.174 42.146 C 52.625 42.479,52.848 42.500,55.993 42.500 L 59.333 42.500 59.333 42.093 C 59.333 41.039,61.088 40.166,63.204 40.168 C 64.509 40.169,65.667 40.412,65.667 40.684 C 65.667 40.777,65.737 40.810,65.822 40.757 C 66.029 40.629,67.176 41.183,67.068 41.359 C 67.021 41.434,67.080 41.459,67.200 41.414 C 67.428 41.327,68.417 42.085,68.417 42.347 C 68.417 42.431,68.492 42.505,68.583 42.512 C 68.675 42.518,68.869 42.632,69.015 42.763 C 69.944 43.604,70.843 40.308,70.173 38.517 C 69.668 37.166,69.871 36.474,70.916 35.983 L 71.636 35.644 72.483 36.008 C 72.948 36.209,73.300 36.420,73.264 36.478 C 73.228 36.536,73.360 36.597,73.558 36.614 C 73.755 36.630,74.596 36.705,75.425 36.781 C 76.717 36.898,76.935 36.882,76.937 36.667 C 76.948 35.787,77.017 35.324,77.125 35.391 C 77.194 35.433,77.250 34.732,77.250 33.833 C 77.250 32.934,77.194 32.233,77.125 32.276 C 77.014 32.344,76.938 31.800,76.942 30.958 C 76.943 30.798,76.893 30.667,76.832 30.667 C 76.770 30.667,76.620 30.348,76.497 29.958 C 76.374 29.569,76.136 28.969,75.967 28.625 C 75.798 28.281,75.716 28.000,75.784 28.000 C 75.852 28.000,75.736 27.880,75.526 27.733 C 75.306 27.579,75.184 27.363,75.237 27.224 C 75.289 27.089,75.257 27.028,75.165 27.085 C 75.016 27.176,74.928 26.956,74.980 26.625 C 74.991 26.556,74.934 26.519,74.854 26.542 C 74.774 26.565,74.343 26.202,73.896 25.737 C 73.449 25.271,72.766 24.664,72.377 24.387 C 71.989 24.111,71.707 23.848,71.752 23.803 C 71.797 23.759,71.740 23.716,71.625 23.709 C 71.226 23.683,69.417 22.839,69.450 22.695 C 69.468 22.615,69.295 22.586,69.063 22.630 C 68.656 22.708,68.647 22.691,68.778 22.063 C 69.047 20.776,68.887 18.829,68.411 17.583 C 68.165 16.942,67.960 16.326,67.955 16.216 C 67.949 16.105,67.888 16.049,67.820 16.092 C 67.751 16.134,67.534 15.908,67.337 15.589 C 66.819 14.751,65.562 13.691,64.464 13.167 C 63.939 12.916,63.539 12.683,63.575 12.647 C 63.610 12.612,63.272 12.575,62.824 12.565 C 62.376 12.554,62.047 12.607,62.093 12.682 C 62.237 12.915,61.975 13.671,61.790 13.556 C 61.687 13.493,61.665 13.529,61.735 13.642 C 61.903 13.915,61.681 14.528,61.462 14.393 C 61.363 14.332,61.327 14.354,61.381 14.443 C 61.670 14.910,58.896 18.290,58.385 18.094 C 58.267 18.049,58.189 18.090,58.210 18.186 C 58.244 18.335,56.948 19.144,56.299 19.378 C 56.123 19.442,56.123 19.523,56.297 19.818 C 56.415 20.017,56.460 20.264,56.397 20.366 C 56.330 20.473,56.357 20.505,56.460 20.441 C 56.627 20.338,56.849 20.821,57.321 22.317 C 57.544 23.023,57.544 23.153,57.320 22.833 C 57.189 22.646,57.178 22.688,57.277 23.000 C 57.413 23.429,57.420 23.824,57.317 25.231 L 57.258 26.045 58.171 26.531 C 59.407 27.191,59.839 27.483,59.791 27.628 C 59.768 27.695,59.825 27.776,59.917 27.808 C 60.420 27.984,60.682 28.219,60.604 28.424 C 60.555 28.552,60.598 28.707,60.700 28.770 C 60.821 28.845,60.839 28.804,60.751 28.651 C 60.652 28.477,60.668 28.463,60.815 28.598 C 61.490 29.217,61.123 30.589,60.147 31.093 C 59.458 31.450,59.004 31.309,58.017 30.432 C 57.565 30.030,56.926 29.613,56.596 29.504 C 56.267 29.395,56.029 29.254,56.069 29.190 C 56.109 29.126,55.696 29.116,55.152 29.168 C 54.608 29.220,54.089 29.203,53.999 29.130 C 53.910 29.057,53.873 29.048,53.917 29.109 C 54.003 29.226,52.728 29.868,52.382 29.881 C 52.272 29.885,52.218 29.948,52.262 30.019 C 52.421 30.276,51.611 30.536,50.936 30.446 C 50.258 30.355,49.570 29.791,49.761 29.483 C 49.811 29.401,49.774 29.333,49.677 29.333 C 49.425 29.333,49.458 28.566,49.720 28.304 C 49.841 28.182,49.973 28.008,50.012 27.917 C 50.051 27.825,50.145 27.771,50.221 27.796 C 50.296 27.821,50.311 27.766,50.254 27.673 C 50.126 27.467,51.662 26.463,51.941 26.570 C 52.050 26.611,52.178 26.545,52.225 26.423 C 52.272 26.300,52.604 26.150,52.962 26.090 C 53.795 25.949,54.138 25.307,54.106 23.951 C 54.093 23.414,54.156 22.999,54.250 22.997 C 54.353 22.996,54.350 22.948,54.241 22.872 C 54.144 22.805,53.907 22.441,53.713 22.063 C 53.314 21.285,52.733 20.657,52.027 20.239 C 50.370 19.261,50.860 16.925,52.762 16.733 C 53.800 16.628,55.302 16.214,55.796 15.897 C 56.005 15.763,56.268 15.705,56.380 15.770 C 56.492 15.834,56.534 15.831,56.473 15.763 C 56.412 15.695,56.662 15.369,57.028 15.038 C 58.593 13.624,59.221 12.163,59.238 9.891 C 59.245 9.052,59.202 8.395,59.143 8.431 C 59.084 8.468,58.991 8.320,58.937 8.104 C 58.882 7.887,58.573 7.508,58.249 7.261 C 57.925 7.013,57.711 6.730,57.773 6.630 C 57.835 6.529,57.808 6.496,57.712 6.555 C 57.617 6.614,57.362 6.526,57.145 6.360 C 56.450 5.829,54.939 5.038,54.202 4.821 C 53.807 4.704,53.571 4.559,53.675 4.495 C 53.777 4.432,53.649 4.376,53.389 4.373 C 53.129 4.369,51.968 4.302,50.807 4.224 C 49.647 4.147,48.733 4.140,48.776 4.208 M121.292 13.784 C 121.498 13.824,121.835 13.824,122.042 13.784 C 122.248 13.745,122.079 13.712,121.667 13.712 C 121.254 13.712,121.085 13.745,121.292 13.784 M140.375 13.788 C 140.719 13.824,141.281 13.824,141.625 13.788 C 141.969 13.752,141.688 13.723,141.000 13.723 C 140.313 13.723,140.031 13.752,140.375 13.788 M11.228 25.463 C 10.941 25.712,10.346 26.367,9.906 26.917 C 9.466 27.467,9.039 27.896,8.957 27.871 C 8.875 27.846,8.855 27.900,8.912 27.992 C 9.063 28.236,8.683 28.863,8.466 28.729 C 8.357 28.661,8.329 28.691,8.398 28.803 C 8.536 29.026,8.066 30.000,7.819 30.000 C 7.724 30.000,7.695 30.078,7.754 30.174 C 7.864 30.352,7.342 32.000,7.175 32.000 C 7.125 32.000,7.071 32.206,7.057 32.458 C 6.905 35.096,6.761 36.500,6.643 36.500 C 6.564 36.500,6.501 36.631,6.503 36.792 C 6.505 37.041,6.529 37.047,6.667 36.833 C 6.797 36.632,6.829 36.659,6.831 36.968 C 6.833 37.232,6.768 37.314,6.625 37.228 C 6.462 37.130,6.460 37.156,6.615 37.349 C 6.725 37.484,6.952 38.277,7.121 39.112 L 7.427 40.629 6.435 41.856 C 5.889 42.531,5.375 43.063,5.292 43.038 C 5.210 43.012,5.187 43.064,5.241 43.153 C 5.371 43.362,4.260 45.371,4.102 45.213 C 4.036 45.147,4.023 45.204,4.073 45.338 C 4.167 45.593,3.447 48.058,3.316 47.927 C 3.240 47.852,3.234 47.982,3.177 50.917 C 3.115 54.068,3.755 56.330,5.475 59.042 L 6.083 60.001 10.333 59.959 L 14.583 59.917 14.667 57.717 C 14.713 56.508,14.725 54.989,14.695 54.342 L 14.639 53.167 12.064 53.167 C 9.238 53.167,8.645 53.032,8.028 52.248 C 7.655 51.774,7.487 50.202,7.831 50.415 C 7.922 50.471,7.957 50.416,7.910 50.292 C 7.619 49.535,8.549 49.254,11.638 49.167 L 14.583 49.083 14.628 44.533 C 14.660 41.184,14.722 40.015,14.862 40.101 C 14.977 40.172,15.006 40.144,14.935 40.030 C 14.775 39.771,15.251 39.091,15.753 38.862 C 16.035 38.734,17.849 38.675,21.420 38.679 L 26.673 38.684 27.239 39.250 C 27.995 40.006,27.997 41.220,27.245 42.006 L 26.771 42.500 29.305 42.500 L 31.839 42.500 31.794 37.792 L 31.750 33.083 22.534 33.040 C 10.931 32.986,12.000 33.472,12.000 28.258 C 12.000 26.466,11.944 25.002,11.875 25.004 C 11.806 25.007,11.515 25.213,11.228 25.463 M73.942 40.125 C 73.898 40.285,73.815 40.717,73.756 41.083 C 73.592 42.120,73.155 43.346,72.988 43.243 C 72.905 43.191,72.887 43.278,72.947 43.435 C 73.027 43.645,72.998 43.685,72.836 43.585 C 72.686 43.492,72.655 43.513,72.739 43.648 C 72.855 43.837,72.390 44.575,71.593 45.467 C 70.762 46.396,68.837 47.427,68.831 46.947 C 68.829 46.798,68.798 46.797,68.705 46.944 C 68.475 47.305,67.549 46.750,67.183 46.033 C 66.999 45.671,66.901 45.316,66.965 45.244 C 67.030 45.172,67.008 45.147,66.917 45.188 C 66.738 45.268,65.667 44.241,65.771 44.090 C 65.805 44.041,65.786 44.035,65.729 44.077 C 65.671 44.119,65.353 44.038,65.020 43.896 C 63.928 43.430,63.286 43.351,62.417 43.576 C 62.142 43.647,61.755 43.716,61.558 43.728 C 61.360 43.740,61.233 43.806,61.276 43.875 C 61.412 44.095,60.667 44.009,60.158 43.746 L 59.667 43.491 59.667 46.734 C 59.667 49.831,59.682 49.982,60.000 50.083 C 60.183 50.142,60.333 50.264,60.333 50.354 C 60.333 50.445,60.406 50.475,60.494 50.420 C 60.582 50.366,60.810 50.477,61.000 50.667 C 61.190 50.857,61.301 51.084,61.246 51.173 C 61.192 51.261,61.219 51.333,61.307 51.333 C 61.535 51.333,61.839 52.290,61.715 52.615 C 61.650 52.784,61.677 52.847,61.786 52.779 C 62.028 52.630,62.183 53.454,62.243 55.197 C 62.293 56.682,62.066 58.167,61.787 58.167 C 61.701 58.167,61.674 58.279,61.727 58.417 C 61.836 58.700,61.688 59.199,61.524 59.099 C 61.465 59.063,61.403 59.289,61.387 59.600 C 61.362 60.072,61.424 60.183,61.761 60.268 C 61.984 60.324,62.116 60.447,62.056 60.544 C 61.994 60.645,62.029 60.669,62.141 60.599 C 62.385 60.448,63.349 61.007,63.215 61.223 C 63.160 61.312,63.192 61.337,63.286 61.279 C 63.516 61.137,64.702 62.307,64.561 62.537 C 64.497 62.640,64.525 62.671,64.627 62.608 C 64.862 62.462,65.560 63.603,65.435 63.930 C 65.371 64.095,65.405 64.142,65.530 64.065 C 65.658 63.986,65.689 64.036,65.621 64.212 C 65.565 64.359,65.598 64.505,65.695 64.537 C 65.904 64.607,66.085 67.218,65.909 67.630 C 65.674 68.180,65.716 68.544,66.024 68.625 C 66.192 68.669,66.289 68.770,66.239 68.850 C 66.190 68.931,66.260 68.954,66.396 68.902 C 66.678 68.793,68.167 69.405,68.167 69.630 C 68.167 69.711,68.263 69.778,68.380 69.778 C 68.739 69.778,69.504 70.359,69.389 70.544 C 69.330 70.640,69.359 70.670,69.454 70.611 C 69.549 70.553,69.880 70.728,70.189 71.000 C 70.497 71.272,70.825 71.496,70.917 71.497 C 71.306 71.501,73.506 69.911,73.970 69.289 C 74.091 69.127,74.271 69.045,74.370 69.106 C 74.473 69.170,74.504 69.141,74.441 69.040 C 74.381 68.942,74.511 68.648,74.730 68.387 C 75.744 67.182,77.000 64.263,77.000 63.112 C 77.000 62.450,75.837 61.716,74.176 61.329 C 72.972 61.049,72.500 60.568,72.500 59.620 C 72.500 57.726,74.597 57.486,77.545 59.042 C 78.073 59.321,78.534 59.520,78.569 59.483 C 78.794 59.244,79.658 57.618,79.909 56.962 C 80.074 56.528,80.256 56.202,80.313 56.237 C 80.370 56.273,80.422 56.140,80.430 55.942 C 80.437 55.745,80.578 54.983,80.743 54.250 C 80.908 53.517,81.034 52.729,81.023 52.500 C 81.008 52.173,81.038 52.137,81.166 52.333 C 81.255 52.471,81.329 52.502,81.331 52.403 C 81.332 52.303,81.284 52.173,81.224 52.113 C 81.071 51.960,81.056 49.833,81.208 49.833 C 81.277 49.833,81.332 49.702,81.331 49.542 C 81.329 49.336,81.290 49.311,81.197 49.456 C 81.121 49.576,80.981 49.073,80.863 48.261 C 80.752 47.489,80.547 46.537,80.409 46.145 C 80.271 45.753,80.196 45.331,80.243 45.207 C 80.291 45.084,80.266 45.022,80.188 45.070 C 80.110 45.118,79.907 44.841,79.737 44.454 C 79.364 43.606,78.231 41.707,77.901 41.377 C 77.770 41.247,77.714 41.052,77.775 40.945 C 77.837 40.838,77.826 40.805,77.752 40.872 C 77.678 40.939,77.456 40.806,77.259 40.577 C 76.949 40.217,76.776 40.164,75.992 40.192 C 74.553 40.242,74.008 40.176,74.417 40.000 C 74.739 39.862,74.737 39.856,74.386 39.845 C 74.174 39.838,73.989 39.955,73.942 40.125 M18.579 42.708 C 18.537 42.823,18.483 47.404,18.460 52.889 L 18.417 62.861 17.859 63.359 C 17.553 63.633,17.196 63.816,17.068 63.767 C 16.939 63.718,16.833 63.750,16.833 63.839 C 16.833 64.098,9.549 64.052,9.444 63.792 C 9.376 63.625,9.357 63.625,9.346 63.792 C 9.339 63.916,9.099 64.000,8.750 64.000 C 8.084 64.000,8.083 64.003,8.409 65.085 C 8.542 65.528,8.606 65.964,8.550 66.054 C 8.494 66.144,8.527 66.170,8.623 66.110 C 8.822 65.988,9.051 66.449,8.907 66.682 C 8.856 66.765,8.894 66.833,8.993 66.833 C 9.222 66.833,9.844 67.848,9.729 68.034 C 9.681 68.112,9.710 68.154,9.794 68.129 C 9.976 68.074,10.833 69.053,10.833 69.316 C 10.833 69.417,10.917 69.500,11.020 69.500 C 11.123 69.500,11.519 69.819,11.900 70.208 C 13.411 71.751,13.036 71.667,18.407 71.667 L 23.160 71.667 23.267 71.240 C 23.326 71.005,23.322 70.209,23.258 69.472 C 23.190 68.700,23.203 68.170,23.289 68.222 C 23.374 68.275,23.385 67.876,23.315 67.285 C 23.157 65.946,23.741 64.551,24.312 64.903 C 24.400 64.958,24.503 64.908,24.541 64.793 C 24.611 64.584,26.936 64.514,34.125 64.504 L 36.667 64.500 36.667 62.167 L 36.667 59.833 30.942 59.833 C 25.411 59.833,24.009 59.724,24.263 59.313 C 24.315 59.228,24.296 59.169,24.221 59.182 C 23.389 59.327,23.285 58.713,23.262 53.555 C 23.242 49.071,23.250 48.953,23.621 48.300 C 23.970 47.686,24.000 47.429,24.000 45.066 L 24.000 42.500 21.328 42.500 C 19.343 42.500,18.636 42.554,18.579 42.708 M27.111 52.944 C 27.050 53.006,27.000 53.681,27.000 54.444 L 27.000 55.833 31.833 55.833 L 36.667 55.833 36.667 54.333 L 36.667 52.833 31.944 52.833 C 29.347 52.833,27.172 52.883,27.111 52.944 M47.167 59.160 L 47.167 65.486 45.875 65.535 L 44.583 65.583 44.539 69.542 C 44.514 71.719,44.552 73.504,44.622 73.510 C 46.350 73.639,47.194 73.821,47.062 74.034 C 46.992 74.148,47.025 74.171,47.151 74.093 C 47.400 73.939,48.364 74.315,48.239 74.517 C 48.190 74.597,48.263 74.619,48.402 74.566 C 49.194 74.262,51.500 77.511,51.500 78.930 C 51.500 80.292,49.901 81.150,48.905 80.323 C 48.566 80.043,47.658 78.150,47.772 77.964 C 47.819 77.888,47.796 77.842,47.721 77.862 C 47.543 77.911,46.478 77.245,46.576 77.146 C 46.617 77.105,46.523 77.063,46.367 77.053 C 46.211 77.044,45.708 77.004,45.250 76.966 L 44.417 76.897 44.452 80.074 C 44.505 84.954,44.621 86.843,44.884 87.106 C 44.948 87.170,45.000 87.341,45.001 87.486 C 45.001 87.631,45.222 88.083,45.492 88.489 C 45.761 88.895,45.937 89.301,45.882 89.390 C 45.827 89.479,45.856 89.506,45.947 89.449 C 46.038 89.393,46.368 89.566,46.681 89.833 C 46.994 90.101,47.297 90.323,47.355 90.327 C 47.412 90.330,47.750 90.460,48.105 90.614 C 48.826 90.927,52.254 91.052,52.625 90.779 C 52.740 90.694,53.078 90.672,53.375 90.729 C 53.705 90.792,53.829 90.776,53.692 90.688 C 53.439 90.525,54.233 90.252,54.493 90.413 C 54.573 90.462,54.666 90.420,54.699 90.319 C 54.733 90.218,54.957 90.124,55.197 90.110 C 55.438 90.095,55.608 90.039,55.574 89.986 C 55.475 89.825,56.675 89.319,56.871 89.440 C 56.979 89.506,57.004 89.474,56.933 89.359 C 56.820 89.178,57.045 89.086,57.417 89.161 C 57.508 89.179,57.528 89.139,57.459 89.071 C 57.323 88.934,58.001 88.393,58.221 88.464 C 58.296 88.488,58.317 88.442,58.268 88.362 C 58.146 88.165,58.907 87.463,59.068 87.623 C 59.138 87.693,59.170 87.675,59.140 87.583 C 59.060 87.337,59.591 86.648,59.750 86.793 C 59.825 86.861,59.841 86.837,59.786 86.739 C 59.731 86.642,59.861 86.192,60.074 85.739 C 60.288 85.287,60.519 84.654,60.586 84.333 C 60.653 84.012,60.793 83.695,60.896 83.628 C 61.033 83.538,61.032 83.504,60.891 83.503 C 60.391 83.496,60.903 82.836,61.477 82.747 C 62.680 82.560,64.128 82.137,64.652 81.818 C 64.946 81.639,65.276 81.544,65.385 81.606 C 65.494 81.669,65.535 81.666,65.476 81.600 C 65.361 81.471,66.971 79.895,67.163 79.949 C 67.226 79.967,67.278 79.886,67.278 79.769 C 67.278 79.653,67.515 79.212,67.806 78.790 C 68.096 78.368,68.333 77.943,68.333 77.845 C 68.333 77.747,68.413 77.667,68.510 77.667 C 68.607 77.667,68.635 77.583,68.572 77.481 C 68.509 77.379,68.561 77.231,68.687 77.151 C 68.862 77.040,68.865 77.004,68.702 77.003 C 68.550 77.001,68.533 76.916,68.644 76.708 C 68.730 76.548,68.800 76.359,68.798 76.289 C 68.797 76.219,68.847 75.826,68.908 75.416 C 69.049 74.476,68.543 73.737,67.132 72.824 C 66.608 72.486,66.233 72.150,66.298 72.078 C 66.363 72.006,66.341 71.989,66.249 72.041 C 66.157 72.093,65.644 72.025,65.109 71.888 C 63.933 71.589,63.954 71.572,64.256 72.576 C 64.898 74.708,64.145 76.221,62.589 75.929 C 61.758 75.773,60.528 73.301,60.944 72.624 C 60.986 72.554,60.904 72.453,60.762 72.398 C 60.619 72.343,60.551 72.213,60.611 72.108 C 60.671 72.003,60.657 71.974,60.579 72.045 C 60.502 72.115,60.209 71.954,59.928 71.686 C 59.113 70.912,58.186 70.500,57.252 70.500 C 56.266 70.499,55.240 70.046,55.273 69.626 C 55.285 69.467,55.241 69.371,55.175 69.412 C 55.108 69.453,55.042 69.183,55.028 68.813 C 54.955 66.954,57.652 66.534,60.398 67.977 C 61.822 68.726,61.968 68.715,62.335 67.830 C 62.447 67.559,62.586 67.367,62.644 67.403 C 62.758 67.473,62.707 65.994,62.575 65.378 C 62.214 63.695,59.713 62.761,58.000 63.670 C 57.587 63.888,57.188 64.050,57.113 64.030 C 57.037 64.009,57.020 64.065,57.076 64.154 C 57.367 64.625,56.035 64.804,55.332 64.389 C 54.660 63.992,54.108 62.333,54.648 62.333 C 54.730 62.333,54.786 62.209,54.773 62.058 C 54.759 61.893,55.192 61.476,55.853 61.016 C 57.213 60.072,57.387 59.895,58.073 58.755 C 58.375 58.254,58.651 57.873,58.686 57.908 C 58.788 58.010,58.851 57.225,58.904 55.213 C 58.937 53.959,58.897 53.377,58.782 53.448 C 58.676 53.514,58.652 53.445,58.720 53.269 C 58.780 53.111,58.761 53.025,58.676 53.077 C 58.592 53.129,58.476 53.096,58.418 53.003 C 58.351 52.893,56.336 52.833,52.740 52.833 L 47.167 52.833 47.167 59.160 M27.106 68.617 C 27.041 68.681,26.998 69.984,27.008 71.514 C 27.038 75.797,27.201 75.696,20.325 75.630 L 15.500 75.583 15.502 76.000 C 15.504 76.291,15.547 76.350,15.646 76.195 C 15.741 76.045,15.822 76.198,15.897 76.665 C 16.080 77.808,16.922 79.438,17.821 80.388 C 18.285 80.879,18.609 81.336,18.541 81.404 C 18.472 81.472,18.492 81.506,18.583 81.478 C 18.675 81.451,18.932 81.530,19.155 81.653 C 19.585 81.891,29.748 82.009,30.118 81.780 C 30.233 81.709,30.287 80.721,30.272 78.972 C 30.256 76.971,30.305 76.218,30.464 76.060 C 30.582 75.942,30.676 75.805,30.673 75.756 C 30.649 75.402,30.728 75.291,31.208 74.998 C 32.184 74.403,33.420 74.706,33.914 75.661 C 34.379 76.561,34.264 85.016,33.790 84.723 C 33.694 84.664,33.659 84.687,33.713 84.774 C 34.209 85.576,33.034 85.833,28.880 85.833 C 26.746 85.833,25.000 85.892,25.000 85.963 C 25.000 86.105,25.317 86.600,25.984 87.500 C 26.221 87.821,26.419 88.158,26.424 88.250 C 26.428 88.342,26.530 88.395,26.650 88.369 C 26.909 88.313,27.362 88.653,27.255 88.824 C 27.215 88.890,27.272 88.948,27.382 88.953 C 27.745 88.967,29.808 90.136,29.694 90.263 C 29.633 90.331,29.662 90.342,29.759 90.287 C 29.855 90.232,30.493 90.341,31.176 90.527 C 32.470 90.882,36.586 91.107,36.404 90.813 C 36.326 90.687,36.820 90.586,37.208 90.647 C 37.277 90.658,37.333 90.604,37.333 90.527 C 37.333 90.367,38.179 89.925,38.387 89.975 C 38.463 89.993,38.483 89.941,38.433 89.860 C 38.325 89.684,38.893 89.128,39.055 89.250 C 39.117 89.296,39.132 89.286,39.089 89.228 C 38.978 89.077,39.326 88.476,39.473 88.566 C 39.540 88.608,39.602 88.516,39.611 88.363 C 39.620 88.209,39.786 87.654,39.980 87.129 C 40.324 86.202,40.333 85.929,40.333 77.337 L 40.333 68.500 33.778 68.500 C 30.172 68.500,27.170 68.552,27.106 68.617 M56.542 70.282 C 56.702 70.323,56.965 70.323,57.125 70.282 C 57.285 70.240,57.154 70.205,56.833 70.205 C 56.512 70.205,56.381 70.240,56.542 70.282 " stroke="none" fill="#747474" fill-rule="evenodd"></path><path id="path1" d="M215.500 9.929 C 215.500 14.762,215.485 15.009,215.211 14.735 C 213.783 13.307,210.203 12.945,207.778 13.983 C 199.631 17.473,200.742 33.726,209.167 34.285 C 211.351 34.430,214.033 33.477,215.321 32.099 C 215.863 31.518,215.904 31.538,216.151 32.500 C 216.500 33.864,216.798 34.000,219.439 34.000 L 221.667 34.000 221.667 19.417 L 221.667 4.833 218.583 4.833 L 215.500 4.833 215.500 9.929 M318.833 19.417 L 318.833 34.000 321.917 34.000 L 325.000 34.000 325.000 26.848 L 325.000 19.696 325.489 19.285 C 326.894 18.103,328.932 17.740,329.979 18.485 C 331.093 19.278,331.078 19.168,331.132 26.958 L 331.180 34.000 334.257 34.000 L 337.333 34.000 337.333 27.027 C 337.333 17.709,336.910 16.064,334.083 14.408 C 331.629 12.970,326.496 13.420,325.415 15.169 C 325.066 15.733,325.000 14.920,325.000 10.083 L 325.000 4.833 321.917 4.833 L 318.833 4.833 318.833 19.417 M284.667 5.586 C 280.206 6.805,277.585 10.292,277.899 14.590 C 278.207 18.808,280.132 20.635,286.078 22.351 C 289.836 23.435,290.854 24.489,290.345 26.764 C 289.733 29.497,285.773 29.795,282.063 27.387 C 280.060 26.087,279.305 26.377,277.683 29.072 C 276.668 30.758,276.650 30.685,278.372 31.858 C 285.579 36.766,295.078 34.161,296.582 26.864 C 297.635 21.758,295.499 18.925,288.983 16.781 C 285.089 15.499,284.167 14.836,284.167 13.318 C 284.167 10.536,287.495 9.723,291.287 11.581 C 293.728 12.776,294.188 12.595,295.597 9.887 C 296.527 8.102,296.547 8.173,294.808 7.140 C 292.130 5.549,287.436 4.830,284.667 5.586 M28.900 13.000 C 28.900 14.329,28.925 14.873,28.957 14.208 C 28.989 13.544,28.989 12.456,28.957 11.792 C 28.925 11.127,28.900 11.671,28.900 13.000 M151.224 13.490 C 149.583 13.751,147.483 14.553,146.192 15.413 C 144.503 16.538,144.498 16.551,145.278 17.827 C 146.514 19.847,147.273 20.017,149.833 18.847 C 153.225 17.297,155.219 18.092,155.459 21.091 L 155.542 22.124 153.896 22.239 C 146.295 22.772,142.563 25.904,143.930 30.603 C 145.153 34.812,151.626 35.672,155.671 32.163 C 156.166 31.733,156.111 31.697,156.577 32.751 C 157.086 33.902,157.330 34.000,159.689 34.000 L 161.522 34.000 161.458 26.792 C 161.411 21.602,161.334 19.397,161.183 18.917 C 159.857 14.724,156.154 12.706,151.224 13.490 M257.333 13.479 C 255.982 13.924,254.821 14.770,253.815 16.043 L 253.177 16.850 253.079 16.383 C 252.527 13.758,252.403 13.667,249.375 13.667 L 247.333 13.667 247.333 23.833 L 247.333 34.000 250.417 34.000 L 253.500 34.000 253.500 27.765 L 253.500 21.530 254.139 20.723 C 255.149 19.448,256.024 19.099,257.927 19.213 C 260.137 19.345,260.008 19.548,260.765 14.725 C 260.934 13.649,258.976 12.938,257.333 13.479 M348.043 13.492 C 345.910 13.829,342.713 15.269,341.762 16.320 C 341.462 16.652,341.469 16.683,342.103 17.774 C 343.305 19.843,344.085 20.027,346.667 18.847 C 350.165 17.248,352.333 18.235,352.333 21.427 L 352.333 22.127 350.708 22.240 C 343.420 22.745,339.813 25.558,340.664 30.071 C 341.513 34.571,348.273 35.881,352.314 32.329 C 353.022 31.707,352.933 31.673,353.410 32.751 C 353.919 33.902,354.164 34.000,356.522 34.000 L 358.356 34.000 358.290 26.792 C 358.218 18.840,358.195 18.646,357.136 16.882 C 355.505 14.165,352.013 12.863,348.043 13.492 M369.083 13.490 C 367.133 13.809,365.143 14.593,363.618 15.643 C 362.387 16.490,362.382 16.509,363.109 17.770 C 364.302 19.842,365.084 20.027,367.667 18.848 C 371.053 17.302,373.085 18.076,373.294 20.992 L 373.375 22.124 371.729 22.238 C 365.357 22.681,361.801 24.874,361.538 28.524 C 361.153 33.863,367.625 36.244,372.811 32.671 L 374.009 31.845 374.413 32.757 C 374.918 33.900,375.167 34.000,377.511 34.000 L 379.333 34.000 379.333 27.281 C 379.333 19.958,379.264 19.183,378.458 17.500 C 376.955 14.363,373.298 12.799,369.083 13.490 M393.583 13.451 C 392.576 13.689,391.412 14.462,390.349 15.602 L 389.204 16.828 389.096 16.039 C 388.808 13.931,388.398 13.669,385.375 13.668 L 383.500 13.667 383.500 23.833 L 383.500 34.000 386.583 34.000 L 389.667 34.000 389.667 27.674 L 389.667 21.348 390.543 20.450 C 391.646 19.321,392.292 19.093,394.053 19.214 C 395.762 19.331,396.094 19.205,396.235 18.387 C 396.296 18.037,396.501 16.930,396.690 15.927 C 397.021 14.173,397.023 14.096,396.733 13.884 C 396.102 13.422,394.587 13.214,393.583 13.451 M175.167 13.611 C 175.029 13.667,174.523 13.858,174.041 14.035 C 173.560 14.212,172.793 14.652,172.338 15.012 C 171.320 15.817,171.236 15.820,171.056 15.058 C 170.798 13.968,170.300 13.758,167.822 13.695 L 165.667 13.640 165.667 23.820 L 165.667 34.000 168.750 34.000 L 171.833 34.000 171.833 26.781 L 171.833 19.563 172.297 19.220 C 174.275 17.757,176.351 17.711,177.389 19.105 C 177.889 19.778,177.993 21.265,177.997 27.792 L 178.000 34.000 181.000 34.000 L 184.000 34.000 184.000 26.785 C 184.000 17.058,183.534 15.562,180.000 13.951 C 179.243 13.606,175.778 13.362,175.167 13.611 M231.871 13.834 C 222.267 16.669,222.610 31.624,232.333 34.024 C 235.906 34.906,241.041 33.749,243.166 31.584 L 243.899 30.837 243.501 30.294 C 241.707 27.840,241.328 27.722,238.898 28.861 C 235.017 30.680,231.703 29.306,231.089 25.625 L 230.985 25.000 237.147 25.000 L 243.309 25.000 243.655 24.561 C 244.410 23.601,243.969 19.797,242.869 17.775 C 240.963 14.273,236.185 12.561,231.871 13.834 M305.833 13.754 C 299.448 15.493,296.681 22.882,299.937 29.495 C 302.553 34.809,310.792 36.020,315.447 31.775 C 316.527 30.790,316.531 30.950,315.396 29.563 C 313.978 27.828,313.439 27.715,311.889 28.825 C 308.307 31.390,304.996 29.002,305.002 23.857 C 305.008 18.861,307.776 16.659,311.550 18.648 C 313.490 19.671,313.829 19.606,315.115 17.962 C 316.269 16.488,316.254 16.531,315.809 16.054 C 313.868 13.973,309.082 12.869,305.833 13.754 M121.708 13.782 C 121.319 13.821,121.000 13.880,121.000 13.913 C 121.000 13.988,124.442 22.899,124.736 23.583 C 124.854 23.858,125.033 24.308,125.134 24.583 C 125.577 25.787,126.868 29.127,127.065 29.583 C 127.185 29.858,127.612 30.965,128.016 32.042 L 128.750 34.001 131.566 33.959 L 134.382 33.917 134.767 33.000 C 134.978 32.496,135.536 31.071,136.006 29.833 C 136.476 28.596,137.259 26.571,137.744 25.333 C 138.230 24.096,138.761 22.708,138.926 22.250 C 139.090 21.792,139.273 21.342,139.333 21.250 C 139.393 21.158,139.579 20.708,139.745 20.250 C 139.912 19.792,140.528 18.189,141.116 16.689 C 141.703 15.189,142.154 13.932,142.117 13.895 C 142.081 13.859,140.858 13.811,139.400 13.789 C 135.865 13.737,136.141 13.508,134.825 17.583 C 134.262 19.325,133.663 21.162,133.493 21.667 C 132.815 23.683,132.021 26.302,131.912 26.884 C 131.744 27.778,131.576 27.646,131.265 26.375 C 131.113 25.756,130.722 24.387,130.397 23.333 C 130.071 22.279,129.504 20.442,129.137 19.250 C 127.353 13.462,127.601 13.758,124.530 13.731 C 123.368 13.721,122.098 13.744,121.708 13.782 M236.656 18.078 C 237.330 18.426,238.123 19.398,238.323 20.120 C 238.684 21.419,238.931 21.333,234.833 21.333 C 230.663 21.333,230.859 21.418,231.559 19.915 C 231.996 18.977,232.944 18.055,233.628 17.904 C 233.878 17.849,234.158 17.775,234.250 17.739 C 234.573 17.613,236.201 17.843,236.656 18.078 M214.250 18.361 C 215.576 19.033,215.500 18.719,215.500 23.512 L 215.500 27.805 214.729 28.484 C 213.528 29.541,211.367 29.875,210.227 29.180 C 208.522 28.140,207.973 22.732,209.298 20.021 C 210.276 18.021,212.265 17.354,214.250 18.361 M155.500 27.175 C 155.500 28.423,155.468 28.545,155.042 28.942 C 153.231 30.625,150.146 30.664,149.650 29.010 C 149.124 27.255,151.227 25.943,154.708 25.854 L 155.500 25.833 155.500 27.175 M352.333 27.175 C 352.333 28.423,352.302 28.545,351.875 28.942 C 350.087 30.605,346.958 30.666,346.511 29.047 C 345.991 27.164,347.911 25.965,351.625 25.854 L 352.333 25.833 352.333 27.175 M373.333 27.208 C 373.333 28.567,373.327 28.589,372.778 29.026 C 370.599 30.765,367.759 30.631,367.410 28.773 C 367.110 27.175,369.323 25.914,372.542 25.849 L 373.333 25.833 373.333 27.208 M38.542 29.958 L 36.667 30.011 36.667 36.218 L 36.667 42.425 30.333 42.421 L 24.000 42.417 24.000 47.690 L 24.000 52.963 30.333 52.873 L 36.667 52.783 36.667 56.140 L 36.667 59.496 30.792 59.542 L 24.917 59.588 30.792 59.627 L 36.667 59.667 36.667 62.165 L 36.667 64.662 30.708 64.708 L 24.750 64.754 30.708 64.794 C 36.542 64.833,36.667 64.840,36.667 65.167 C 36.667 65.493,36.778 65.500,41.917 65.500 L 47.167 65.500 47.167 59.154 L 47.167 52.808 53.417 52.862 L 59.667 52.917 59.667 47.635 C 59.667 43.822,59.613 42.320,59.474 42.234 C 59.355 42.161,59.327 42.188,59.400 42.307 C 59.489 42.450,57.961 42.492,53.343 42.472 L 47.167 42.446 47.167 36.248 L 47.167 30.051 45.140 29.942 C 44.026 29.882,42.507 29.849,41.765 29.869 C 41.024 29.889,39.573 29.929,38.542 29.958 M185.833 37.917 L 185.833 39.833 193.583 39.833 L 201.333 39.833 201.333 37.917 L 201.333 36.000 193.583 36.000 L 185.833 36.000 185.833 37.917 M261.167 37.917 L 261.167 39.833 268.917 39.833 L 276.667 39.833 276.667 37.917 L 276.667 36.000 268.917 36.000 L 261.167 36.000 261.167 37.917 M120.056 51.625 C 120.098 51.694,120.639 53.100,121.258 54.750 C 121.878 56.400,122.716 58.612,123.120 59.667 C 123.525 60.721,124.001 61.996,124.178 62.500 C 124.355 63.004,124.573 63.567,124.661 63.750 C 124.809 64.057,126.519 68.607,127.448 71.167 C 127.664 71.762,127.912 72.400,127.998 72.583 C 128.084 72.767,128.574 74.042,129.088 75.417 C 131.347 81.469,131.428 81.622,132.676 82.255 C 133.374 82.608,136.837 82.917,136.833 82.625 C 136.832 82.580,136.431 81.517,134.868 77.417 C 134.309 75.950,133.467 73.737,132.997 72.500 C 132.527 71.262,131.966 69.800,131.750 69.250 C 131.535 68.700,130.150 65.063,128.672 61.167 C 125.133 51.833,125.395 52.357,123.964 51.759 C 123.322 51.491,119.904 51.374,120.056 51.625 M146.333 66.583 L 146.333 80.833 154.917 80.833 L 163.500 80.833 163.500 78.083 L 163.500 75.333 158.250 75.333 L 153.000 75.333 153.000 63.833 L 153.000 52.333 149.667 52.333 L 146.333 52.333 146.333 66.583 M175.073 52.708 C 174.973 53.032,173.898 55.841,172.825 58.583 C 171.055 63.106,170.000 65.851,170.000 65.933 C 170.000 65.988,169.890 66.269,169.756 66.558 C 169.622 66.847,169.058 68.283,168.503 69.750 C 167.948 71.217,167.423 72.567,167.338 72.750 C 167.004 73.462,164.333 80.493,164.333 80.658 C 164.333 81.219,170.274 80.799,170.996 80.187 C 171.412 79.835,173.332 75.058,173.333 74.373 C 173.333 74.349,175.742 74.349,178.685 74.373 L 184.037 74.417 184.905 76.917 C 186.287 80.895,186.046 80.715,190.125 80.804 C 192.647 80.859,193.000 80.834,193.000 80.606 C 193.000 80.353,192.547 79.092,192.093 78.083 C 191.970 77.808,191.677 77.058,191.444 76.417 C 191.210 75.775,190.711 74.462,190.334 73.500 C 189.958 72.537,189.347 70.962,188.977 70.000 C 188.607 69.037,187.967 67.387,187.555 66.333 C 187.143 65.279,186.631 63.967,186.417 63.417 C 185.413 60.829,184.754 59.127,184.223 57.750 C 183.905 56.925,183.304 55.369,182.887 54.292 L 182.128 52.333 178.658 52.333 C 175.206 52.333,175.189 52.335,175.073 52.708 M195.333 66.572 L 195.333 80.833 200.625 80.830 C 209.081 80.824,210.983 80.553,213.588 78.987 C 217.493 76.640,218.631 70.780,215.737 67.921 C 215.152 67.343,213.496 66.426,212.420 66.086 C 212.144 65.998,212.207 65.928,212.803 65.662 C 218.818 62.969,217.822 55.023,211.210 52.944 L 209.583 52.432 202.458 52.372 L 195.333 52.311 195.333 66.572 M207.697 57.522 C 209.316 57.869,210.131 59.201,209.951 61.204 C 209.745 63.500,208.767 64.056,204.792 64.141 L 202.000 64.200 202.000 60.767 L 202.000 57.333 204.408 57.333 C 205.733 57.333,207.213 57.418,207.697 57.522 M180.976 65.333 C 181.709 67.487,182.360 69.381,182.423 69.542 C 182.528 69.814,182.285 69.833,178.705 69.833 L 174.874 69.833 176.289 65.708 C 177.068 63.440,177.891 60.983,178.119 60.250 C 178.346 59.517,178.569 58.804,178.615 58.667 C 178.661 58.529,178.910 59.092,179.170 59.917 C 179.430 60.742,180.242 63.179,180.976 65.333 M208.553 69.003 C 210.314 69.547,210.749 70.257,210.640 72.409 C 210.510 75.000,209.269 75.667,204.575 75.667 L 202.000 75.667 202.000 72.167 L 202.000 68.667 204.732 68.667 C 207.002 68.667,207.649 68.724,208.553 69.003 " stroke="none" fill="#e4e4e4" fill-rule="evenodd"></path><path id="path2" d="M32.417 4.110 C 31.043 4.406,28.429 5.547,27.890 6.086 C 27.754 6.222,27.580 6.333,27.502 6.333 C 26.972 6.333,24.028 9.664,23.492 10.871 C 23.177 11.578,22.806 12.189,22.668 12.226 C 22.461 12.283,22.465 12.298,22.688 12.314 C 23.033 12.339,23.206 12.106,23.563 11.138 C 23.841 10.386,25.320 8.259,25.647 8.141 C 25.736 8.109,26.160 7.752,26.591 7.347 C 28.108 5.920,29.866 5.033,32.833 4.198 C 33.404 4.038,33.076 3.969,32.417 4.110 M34.042 4.119 C 34.294 4.158,34.706 4.158,34.958 4.119 C 35.210 4.081,35.004 4.050,34.500 4.050 C 33.996 4.050,33.790 4.081,34.042 4.119 M36.595 4.402 C 37.243 4.608,37.880 4.837,38.011 4.913 C 38.186 5.012,38.203 4.997,38.074 4.856 C 37.854 4.617,36.113 3.995,35.712 4.014 C 35.550 4.021,35.947 4.196,36.595 4.402 M50.833 4.166 C 52.017 4.253,53.127 4.439,53.736 4.654 C 54.278 4.845,54.757 4.965,54.801 4.921 C 54.845 4.877,54.777 4.805,54.649 4.760 C 54.521 4.715,54.079 4.558,53.667 4.412 C 53.191 4.242,52.186 4.123,50.917 4.085 L 48.917 4.025 50.833 4.166 M47.374 4.496 C 45.905 5.163,44.488 6.773,44.511 7.750 C 44.515 7.944,44.644 7.775,44.818 7.344 C 45.408 5.891,46.497 4.956,48.250 4.400 C 48.766 4.237,48.822 4.187,48.500 4.181 C 48.271 4.177,47.764 4.319,47.374 4.496 M38.956 5.708 C 39.337 6.098,39.801 6.754,39.987 7.167 C 40.174 7.579,40.328 7.803,40.330 7.664 C 40.338 7.057,38.871 5.000,38.429 5.000 C 38.338 5.000,38.576 5.319,38.956 5.708 M55.865 5.536 C 58.147 6.889,59.167 7.995,59.167 9.118 C 59.167 9.339,59.238 9.476,59.324 9.422 C 60.215 8.872,57.241 5.700,55.250 5.079 C 55.067 5.022,55.343 5.227,55.865 5.536 M44.353 9.208 C 44.374 10.334,44.453 10.225,44.535 8.958 C 44.563 8.523,44.529 8.167,44.460 8.167 C 44.390 8.167,44.342 8.635,44.353 9.208 M40.350 11.968 C 40.339 14.409,40.391 15.651,40.500 15.583 C 40.700 15.460,40.700 9.290,40.500 8.667 C 40.424 8.429,40.359 9.845,40.350 11.968 M29.548 9.295 C 28.841 9.848,28.667 10.634,28.667 13.272 C 28.667 14.620,28.707 15.682,28.756 15.633 C 28.805 15.584,28.861 14.377,28.881 12.950 C 28.920 10.136,29.050 9.707,30.016 9.211 C 30.240 9.096,30.306 9.005,30.167 9.006 C 30.029 9.007,29.751 9.137,29.548 9.295 M32.121 9.783 C 32.363 10.151,32.433 10.738,32.508 12.992 L 32.599 15.750 32.632 13.083 C 32.665 10.489,32.443 9.333,31.915 9.333 C 31.866 9.333,31.959 9.536,32.121 9.783 M44.408 15.833 C 44.408 18.904,44.431 20.160,44.458 18.625 C 44.486 17.090,44.486 14.577,44.458 13.042 C 44.431 11.506,44.408 12.762,44.408 15.833 M21.365 12.447 C 20.969 12.587,20.672 12.728,20.705 12.760 C 20.785 12.841,22.116 12.440,22.267 12.289 C 22.443 12.112,22.182 12.158,21.365 12.447 M62.101 12.597 C 62.046 12.742,62.005 12.948,62.011 13.055 C 62.016 13.162,62.092 13.072,62.179 12.855 C 62.737 11.462,67.119 14.482,68.229 17.024 C 68.363 17.332,68.478 17.471,68.484 17.333 C 68.563 15.481,62.672 11.109,62.101 12.597 M19.500 13.319 C 16.180 15.441,15.646 16.943,15.706 24.008 L 15.750 29.250 25.000 29.290 C 34.704 29.332,34.797 29.339,35.221 30.077 C 35.356 30.311,35.444 32.299,35.504 36.500 L 35.591 42.583 35.629 36.464 L 35.667 30.344 35.078 29.756 L 34.489 29.167 25.247 29.167 L 16.005 29.167 15.961 23.875 C 15.928 19.977,15.972 18.408,16.127 17.917 C 16.697 16.105,17.854 14.615,19.549 13.507 C 20.116 13.137,20.506 12.835,20.415 12.837 C 20.324 12.838,19.912 13.055,19.500 13.319 M58.282 13.575 C 57.297 15.133,55.783 16.148,53.807 16.577 C 52.941 16.765,52.858 16.809,53.349 16.820 C 54.248 16.840,55.706 16.274,56.712 15.514 C 57.520 14.904,58.984 13.095,58.810 12.921 C 58.772 12.883,58.534 13.177,58.282 13.575 M61.662 13.870 C 60.851 15.919,58.264 18.530,56.500 19.081 C 55.876 19.276,55.825 19.492,56.248 20.152 C 56.459 20.481,56.727 21.050,56.843 21.417 C 56.959 21.783,57.088 21.985,57.128 21.864 C 57.169 21.744,56.962 21.157,56.668 20.561 C 56.374 19.965,56.160 19.458,56.192 19.436 C 56.224 19.413,56.675 19.184,57.194 18.927 C 59.213 17.928,62.583 14.027,61.963 13.407 C 61.916 13.361,61.781 13.569,61.662 13.870 M23.128 16.153 L 22.583 16.639 22.532 19.978 L 22.481 23.317 23.032 23.909 C 23.400 24.304,23.778 24.528,24.167 24.581 L 24.750 24.661 24.126 24.481 C 22.796 24.097,22.667 23.721,22.667 20.245 C 22.667 16.747,22.746 16.433,23.747 15.978 C 24.251 15.749,24.324 15.673,24.044 15.670 C 23.839 15.668,23.427 15.885,23.128 16.153 M52.083 16.824 C 51.640 17.006,51.233 17.488,51.090 18.000 C 51.008 18.299,51.090 18.233,51.381 17.768 C 51.604 17.411,52.004 17.023,52.269 16.906 C 52.792 16.675,52.627 16.602,52.083 16.824 M68.505 17.833 C 68.505 17.971,68.578 18.196,68.667 18.333 C 68.810 18.556,68.828 18.556,68.828 18.333 C 68.828 18.196,68.756 17.971,68.667 17.833 C 68.523 17.611,68.505 17.611,68.505 17.833 M51.000 18.839 C 51.000 19.209,51.549 19.957,52.027 20.239 C 52.745 20.663,53.323 21.296,53.778 22.152 C 54.001 22.573,54.135 22.729,54.076 22.500 C 53.911 21.866,53.254 20.927,52.664 20.482 C 51.721 19.771,51.143 19.174,51.242 19.013 C 51.295 18.927,51.263 18.809,51.169 18.752 C 51.076 18.694,51.000 18.734,51.000 18.839 M68.899 20.311 C 68.899 21.262,68.954 21.899,69.021 21.728 C 69.175 21.337,69.172 19.554,69.017 19.000 C 68.953 18.771,68.900 19.361,68.899 20.311 M26.252 19.542 C 26.214 19.656,26.160 20.588,26.133 21.612 C 26.082 23.534,25.765 24.333,25.054 24.333 C 24.933 24.333,24.833 24.413,24.833 24.509 C 24.833 24.763,25.826 24.146,26.056 23.750 C 26.163 23.567,26.287 22.554,26.333 21.500 L 26.417 19.583 33.333 19.583 L 40.250 19.583 40.294 24.708 L 40.338 29.833 38.461 29.868 L 36.583 29.903 38.250 29.959 C 39.167 29.989,40.085 29.972,40.292 29.921 L 40.667 29.827 40.667 24.844 C 40.667 22.103,40.621 19.742,40.566 19.597 C 40.430 19.244,26.372 19.189,26.252 19.542 M44.412 25.667 L 44.417 29.917 45.750 29.929 L 47.083 29.941 45.795 29.880 L 44.506 29.819 44.457 25.618 L 44.408 21.417 44.412 25.667 M68.669 22.375 C 68.668 22.546,68.791 22.667,68.967 22.667 C 69.132 22.667,69.338 22.733,69.425 22.813 C 69.512 22.894,69.872 23.052,70.224 23.165 C 71.668 23.627,74.124 25.664,75.116 27.224 C 75.341 27.576,75.563 27.826,75.610 27.779 C 76.188 27.201,72.274 23.839,69.833 22.818 C 69.329 22.607,68.862 22.355,68.794 22.259 C 68.722 22.155,68.671 22.202,68.669 22.375 M54.083 23.917 C 54.083 24.421,54.140 24.833,54.208 24.833 C 54.277 24.833,54.333 24.421,54.333 23.917 C 54.333 23.412,54.277 23.000,54.208 23.000 C 54.140 23.000,54.083 23.412,54.083 23.917 M10.817 25.625 C 9.577 26.913,8.342 28.675,7.953 29.708 C 7.732 30.297,7.987 29.973,8.583 28.905 C 9.508 27.252,11.390 25.022,11.875 25.004 C 11.944 25.002,12.000 26.466,12.000 28.258 C 12.000 33.472,10.931 32.986,22.534 33.040 L 31.750 33.083 31.839 37.833 L 31.927 42.583 31.922 37.750 L 31.917 32.917 22.545 32.833 L 13.174 32.750 12.712 32.288 L 12.250 31.826 12.199 28.247 C 12.141 24.140,12.178 24.211,10.817 25.625 M53.841 25.483 C 53.679 25.873,53.500 25.999,52.986 26.086 C 52.628 26.146,52.291 26.267,52.237 26.355 C 52.178 26.451,52.326 26.468,52.611 26.399 C 53.554 26.171,53.842 25.998,54.008 25.563 C 54.241 24.948,54.092 24.876,53.841 25.483 M57.163 25.428 C 56.906 26.101,56.938 26.144,58.095 26.697 C 60.335 27.767,61.363 29.148,60.771 30.293 C 60.252 31.296,59.229 31.282,58.097 30.255 C 56.397 28.714,54.206 28.579,52.265 29.896 C 51.440 30.456,50.832 30.451,50.154 29.881 C 49.658 29.463,49.632 29.457,49.818 29.805 C 50.208 30.533,51.500 30.727,52.216 30.164 C 54.009 28.753,56.353 28.887,58.105 30.502 C 59.007 31.334,59.498 31.462,60.203 31.051 C 61.873 30.075,61.182 28.121,58.711 26.831 C 57.185 26.035,57.181 26.031,57.336 25.490 C 57.509 24.887,57.385 24.842,57.163 25.428 M50.991 26.972 C 50.583 27.231,50.137 27.580,50.000 27.748 C 49.764 28.036,49.771 28.040,50.125 27.820 C 50.331 27.692,50.500 27.543,50.500 27.489 C 50.500 27.436,50.837 27.224,51.250 27.018 C 51.663 26.812,52.000 26.611,52.000 26.572 C 52.000 26.405,51.686 26.529,50.991 26.972 M75.967 28.625 C 76.136 28.969,76.374 29.569,76.497 29.958 C 76.620 30.348,76.780 30.667,76.853 30.667 C 76.926 30.667,76.883 30.378,76.759 30.025 C 76.485 29.250,75.859 28.000,75.743 28.000 C 75.697 28.000,75.798 28.281,75.967 28.625 M49.601 28.430 C 49.460 28.797,49.475 29.333,49.625 29.333 C 49.694 29.332,49.763 29.070,49.780 28.749 C 49.812 28.116,49.759 28.020,49.601 28.430 M7.449 30.854 C 7.053 31.891,7.112 32.262,7.515 31.269 C 7.697 30.821,7.820 30.377,7.789 30.284 C 7.758 30.190,7.605 30.447,7.449 30.854 M76.937 31.500 C 77.073 32.434,77.167 32.567,77.164 31.819 C 77.163 31.506,77.087 31.137,76.995 31.000 C 76.879 30.825,76.861 30.976,76.937 31.500 M6.866 33.041 C 6.593 34.322,6.467 36.500,6.667 36.500 C 6.761 36.500,6.833 36.008,6.833 35.364 C 6.833 34.739,6.913 33.794,7.011 33.264 C 7.236 32.048,7.117 31.865,6.866 33.041 M77.223 33.833 C 77.223 34.521,77.252 34.802,77.288 34.458 C 77.324 34.115,77.324 33.552,77.288 33.208 C 77.252 32.865,77.223 33.146,77.223 33.833 M77.024 35.667 C 76.942 36.860,76.913 36.880,75.434 36.798 C 74.381 36.740,73.813 36.604,72.861 36.183 C 72.090 35.842,71.535 35.688,71.361 35.767 C 71.136 35.868,71.162 35.904,71.500 35.957 C 71.729 35.993,72.495 36.242,73.203 36.511 C 75.698 37.460,77.292 37.164,77.120 35.784 C 77.068 35.364,77.047 35.339,77.024 35.667 M70.471 36.173 C 69.881 36.517,69.766 37.427,70.173 38.517 C 70.612 39.690,70.560 40.902,70.026 41.948 C 69.468 43.043,69.349 43.064,68.443 42.232 C 67.739 41.586,66.333 40.697,66.333 40.897 C 66.333 40.936,66.657 41.158,67.053 41.390 C 67.449 41.622,68.086 42.125,68.468 42.508 C 69.286 43.325,69.480 43.295,70.086 42.260 C 70.726 41.168,70.822 39.805,70.351 38.511 C 69.934 37.369,70.003 36.819,70.625 36.331 C 71.060 35.988,70.961 35.887,70.471 36.173 M6.680 37.645 C 6.673 37.770,6.796 38.500,6.953 39.266 L 7.240 40.658 6.732 41.204 C 5.193 42.857,3.317 46.468,3.340 47.734 C 3.343 47.926,3.558 47.433,3.818 46.639 C 4.398 44.862,5.226 43.357,6.475 41.809 L 7.428 40.629 7.145 39.233 C 6.841 37.732,6.702 37.257,6.680 37.645 M15.707 38.888 C 14.786 39.399,14.757 39.557,14.667 44.500 L 14.583 49.083 11.611 49.167 L 8.638 49.250 8.153 49.794 C 7.230 50.828,7.620 52.385,8.939 52.937 C 9.326 53.099,10.254 53.167,12.070 53.167 L 14.651 53.167 14.714 54.292 L 14.776 55.417 14.763 54.167 L 14.750 52.917 11.805 52.871 L 8.860 52.826 8.347 52.346 C 7.541 51.593,7.705 50.010,8.635 49.558 C 8.790 49.482,10.229 49.382,11.833 49.335 L 14.750 49.250 14.794 44.622 L 14.839 39.995 15.503 39.331 C 15.868 38.965,16.148 38.669,16.125 38.673 C 16.102 38.676,15.914 38.773,15.707 38.888 M18.802 38.791 C 20.206 38.819,22.456 38.819,23.802 38.791 C 25.148 38.763,24.000 38.740,21.250 38.741 C 18.500 38.741,17.398 38.763,18.802 38.791 M26.500 38.818 C 26.500 38.906,26.651 39.025,26.835 39.084 C 27.019 39.142,27.288 39.417,27.431 39.694 C 27.574 39.971,27.729 40.160,27.776 40.113 C 27.909 39.980,27.350 39.216,26.905 38.924 C 26.682 38.778,26.500 38.731,26.500 38.818 M73.753 39.995 C 73.691 40.096,73.570 40.669,73.485 41.268 C 73.309 42.514,72.688 43.941,71.962 44.767 C 71.689 45.079,71.536 45.333,71.621 45.333 C 71.845 45.333,72.791 43.971,73.183 43.085 C 73.662 42.002,74.151 39.351,73.753 39.995 M74.628 40.163 C 74.928 40.234,75.570 40.261,76.055 40.221 C 76.888 40.154,76.960 40.180,77.344 40.685 C 77.567 40.979,77.832 41.303,77.932 41.405 C 79.059 42.552,80.387 45.607,80.837 48.083 C 81.051 49.262,81.143 49.549,81.153 49.065 C 81.197 46.852,79.668 43.270,77.623 40.792 L 76.969 40.000 75.526 40.017 C 74.457 40.030,74.225 40.068,74.628 40.163 M61.000 40.495 C 60.047 40.843,59.329 41.481,59.340 41.968 C 59.344 42.127,59.444 42.026,59.570 41.737 C 60.073 40.581,63.023 39.991,65.333 40.583 C 65.724 40.683,65.729 40.676,65.417 40.477 C 64.822 40.097,62.059 40.108,61.000 40.495 M27.360 41.686 C 27.244 41.872,26.909 42.128,26.616 42.255 C 26.210 42.432,26.165 42.489,26.427 42.493 C 26.759 42.500,27.806 41.584,27.648 41.426 C 27.606 41.383,27.476 41.500,27.360 41.686 M50.725 41.999 C 50.529 42.078,50.320 42.220,50.262 42.315 C 50.203 42.409,50.364 42.377,50.620 42.244 C 51.204 41.939,51.459 41.940,52.083 42.251 L 52.583 42.501 52.190 42.167 C 51.774 41.814,51.314 41.761,50.725 41.999 M59.667 43.310 C 59.667 43.746,60.774 44.071,61.510 43.850 C 61.889 43.736,62.165 43.609,62.123 43.567 C 62.081 43.525,61.833 43.572,61.571 43.671 C 61.028 43.878,60.383 43.760,59.958 43.378 C 59.774 43.212,59.667 43.187,59.667 43.310 M65.067 43.910 C 66.139 44.458,66.427 44.735,67.063 45.822 C 67.533 46.627,68.667 47.486,68.667 47.037 C 68.667 46.965,68.455 46.826,68.196 46.729 C 67.915 46.623,67.462 46.157,67.071 45.572 C 66.410 44.582,65.430 43.776,64.667 43.593 C 64.438 43.538,64.618 43.681,65.067 43.910 M70.940 45.807 C 70.787 45.976,70.251 46.323,69.748 46.577 C 69.245 46.832,68.833 47.063,68.833 47.092 C 68.833 47.388,71.140 46.115,71.418 45.665 C 71.595 45.378,71.230 45.487,70.940 45.807 M3.076 48.909 C 3.012 49.334,3.001 49.723,3.051 49.773 C 3.101 49.823,3.194 49.516,3.258 49.091 C 3.321 48.666,3.333 48.277,3.283 48.227 C 3.233 48.177,3.140 48.484,3.076 48.909 M23.283 48.899 C 23.215 49.072,23.198 49.254,23.246 49.302 C 23.398 49.454,23.532 49.205,23.468 48.888 C 23.410 48.598,23.401 48.599,23.283 48.899 M23.167 50.167 C 23.167 50.582,23.233 50.812,23.333 50.750 C 23.425 50.693,23.500 50.431,23.500 50.167 C 23.500 49.902,23.425 49.640,23.333 49.583 C 23.233 49.521,23.167 49.752,23.167 50.167 M81.071 51.280 C 81.064 52.092,81.113 52.585,81.184 52.405 C 81.349 51.983,81.370 49.833,81.208 49.834 C 81.140 49.834,81.078 50.485,81.071 51.280 M59.667 50.167 C 59.667 50.258,59.835 50.332,60.042 50.331 C 60.345 50.329,60.369 50.297,60.167 50.167 C 59.844 49.958,59.667 49.958,59.667 50.167 M3.053 51.167 C 3.053 51.762,3.084 52.006,3.121 51.708 C 3.158 51.410,3.158 50.923,3.121 50.625 C 3.084 50.327,3.053 50.571,3.053 51.167 M60.825 50.741 C 61.300 51.247,61.406 51.281,61.177 50.853 C 61.085 50.680,60.878 50.489,60.717 50.427 C 60.499 50.343,60.526 50.423,60.825 50.741 M61.449 51.915 C 61.602 52.234,61.751 52.471,61.781 52.442 C 61.884 52.338,61.466 51.333,61.320 51.333 C 61.239 51.333,61.297 51.595,61.449 51.915 M3.108 53.333 C 3.305 55.214,4.452 58.085,5.616 59.611 L 6.040 60.167 10.436 60.167 L 14.833 60.167 14.799 57.792 L 14.765 55.417 14.674 57.667 L 14.583 59.917 10.333 59.959 L 6.083 60.001 5.469 59.042 C 4.524 57.567,3.877 56.076,3.577 54.684 C 3.152 52.706,2.996 52.258,3.108 53.333 M58.646 53.397 C 58.795 53.708,58.946 53.935,58.981 53.903 C 59.081 53.811,58.642 52.833,58.501 52.833 C 58.432 52.833,58.497 53.087,58.646 53.397 M80.922 53.417 C 80.695 54.661,80.329 55.981,79.993 56.766 C 79.809 57.195,79.692 57.580,79.732 57.621 C 80.017 57.906,81.328 53.540,81.126 52.981 C 81.080 52.854,80.988 53.050,80.922 53.417 M23.167 53.927 C 23.167 54.280,23.234 54.478,23.333 54.417 C 23.425 54.360,23.500 54.093,23.500 53.823 C 23.500 53.554,23.425 53.333,23.333 53.333 C 23.242 53.333,23.167 53.600,23.167 53.927 M62.003 53.875 C 62.001 54.127,62.075 54.333,62.167 54.333 C 62.377 54.333,62.377 53.993,62.167 53.667 C 62.041 53.472,62.005 53.518,62.003 53.875 M59.055 55.417 C 59.055 56.058,59.086 56.300,59.122 55.955 C 59.158 55.609,59.157 55.084,59.120 54.788 C 59.083 54.492,59.054 54.775,59.055 55.417 M62.214 55.417 C 62.216 55.875,62.248 56.043,62.286 55.789 C 62.325 55.536,62.324 55.161,62.284 54.956 C 62.244 54.751,62.213 54.958,62.214 55.417 M29.375 55.958 C 30.727 55.986,32.940 55.986,34.292 55.958 C 35.644 55.930,34.537 55.907,31.833 55.907 C 29.129 55.907,28.023 55.930,29.375 55.958 M62.000 57.028 C 62.000 57.635,62.073 57.613,62.230 56.958 C 62.295 56.686,62.271 56.500,62.170 56.500 C 62.076 56.500,62.000 56.737,62.000 57.028 M58.846 57.015 C 58.793 58.087,57.395 59.963,55.876 61.002 C 55.271 61.416,54.747 61.866,54.711 62.002 C 54.654 62.220,54.672 62.219,54.865 62.000 C 54.985 61.862,55.515 61.459,56.043 61.104 C 57.546 60.091,59.235 57.681,58.944 56.961 C 58.888 56.821,58.855 56.839,58.846 57.015 M23.167 57.403 C 23.167 59.656,23.770 59.842,30.928 59.797 L 36.750 59.760 30.750 59.672 C 26.376 59.607,24.651 59.527,24.384 59.374 C 23.818 59.050,23.500 58.486,23.500 57.806 C 23.500 57.465,23.425 57.140,23.333 57.083 C 23.239 57.025,23.167 57.164,23.167 57.403 M73.667 58.025 C 71.797 58.752,72.121 60.851,74.176 61.329 C 74.675 61.445,75.524 61.772,76.061 62.054 L 77.040 62.568 76.950 63.409 C 76.901 63.871,76.816 64.400,76.761 64.583 C 76.706 64.767,76.772 64.692,76.907 64.417 C 77.705 62.787,76.592 61.527,73.966 61.090 C 71.832 60.735,72.386 58.025,74.554 58.211 C 75.120 58.260,75.433 58.243,75.250 58.174 C 74.555 57.914,74.070 57.868,73.667 58.025 M79.185 58.442 C 78.559 59.628,78.657 59.602,77.330 58.938 C 76.665 58.605,76.001 58.338,75.853 58.344 C 75.672 58.351,75.705 58.404,75.956 58.504 C 76.160 58.587,76.814 58.888,77.407 59.174 C 78.001 59.461,78.563 59.647,78.658 59.589 C 78.913 59.431,79.722 57.999,79.615 57.893 C 79.565 57.842,79.371 58.090,79.185 58.442 M61.351 59.287 C 60.947 60.119,61.098 60.500,61.833 60.500 C 62.626 60.500,64.514 62.210,65.237 63.583 C 65.479 64.042,65.629 64.229,65.572 64.000 C 65.287 62.862,63.751 61.224,62.333 60.545 C 61.829 60.304,61.386 60.084,61.349 60.055 C 61.312 60.027,61.405 59.689,61.556 59.306 C 61.931 58.349,61.812 58.338,61.351 59.287 M18.196 62.655 C 18.099 62.932,17.772 63.311,17.468 63.496 C 17.165 63.681,17.000 63.832,17.103 63.833 C 17.595 63.834,18.711 62.489,18.441 62.218 C 18.403 62.181,18.293 62.377,18.196 62.655 M54.528 62.784 C 54.449 64.295,56.009 65.194,57.112 64.273 C 60.044 61.827,64.018 64.531,62.336 67.829 C 61.872 68.738,61.850 68.740,60.427 67.995 C 59.452 67.484,58.907 67.309,58.117 67.252 C 57.129 67.181,57.118 67.184,57.873 67.325 C 59.071 67.548,60.192 67.956,60.871 68.418 C 62.010 69.192,62.750 68.377,62.750 66.346 C 62.750 63.437,60.005 62.110,57.487 63.803 C 55.948 64.838,54.792 64.450,54.619 62.841 L 54.556 62.250 54.528 62.784 M8.040 63.805 C 7.816 63.947,8.185 65.269,8.727 66.271 C 9.087 66.935,9.063 66.689,8.684 65.813 C 8.043 64.336,8.053 64.000,8.737 64.000 C 9.065 64.000,9.333 63.925,9.333 63.833 C 9.333 63.636,8.341 63.614,8.040 63.805 M9.500 63.833 C 9.500 63.939,10.833 64.000,13.167 64.000 C 15.500 64.000,16.833 63.939,16.833 63.833 C 16.833 63.727,15.500 63.667,13.167 63.667 C 10.833 63.667,9.500 63.727,9.500 63.833 M25.629 64.622 C 26.021 64.657,26.621 64.657,26.963 64.621 C 27.304 64.585,26.983 64.557,26.250 64.557 C 25.517 64.558,25.237 64.587,25.629 64.622 M28.714 64.623 C 29.245 64.657,30.070 64.656,30.548 64.623 C 31.026 64.589,30.592 64.562,29.583 64.562 C 28.575 64.563,28.184 64.590,28.714 64.623 M32.800 64.624 C 33.560 64.655,34.760 64.655,35.466 64.624 C 36.172 64.593,35.550 64.567,34.083 64.567 C 32.617 64.568,32.039 64.593,32.800 64.624 M65.695 64.833 C 65.692 65.063,65.755 65.400,65.833 65.583 L 65.977 65.917 65.972 65.583 C 65.969 65.400,65.907 65.063,65.833 64.833 L 65.700 64.417 65.695 64.833 M23.787 65.125 C 23.340 65.620,22.970 66.808,23.333 66.583 C 23.425 66.527,23.500 66.341,23.500 66.170 C 23.500 65.999,23.694 65.628,23.931 65.346 C 24.381 64.812,24.251 64.613,23.787 65.125 M75.967 66.326 C 75.628 67.035,74.995 68.058,74.562 68.599 C 74.088 69.190,73.961 69.417,74.243 69.167 C 74.791 68.681,75.965 66.897,76.410 65.873 C 76.948 64.636,76.609 64.981,75.967 66.326 M44.333 69.667 L 44.333 73.833 45.396 73.833 C 49.294 73.833,53.094 78.728,50.448 80.342 C 50.115 80.544,50.021 80.666,50.196 80.666 C 51.330 80.669,51.807 78.916,51.090 77.377 C 49.970 74.972,47.953 73.766,44.619 73.510 C 44.547 73.505,44.510 71.700,44.536 69.500 C 44.562 67.300,44.527 65.500,44.458 65.500 C 44.390 65.500,44.333 67.375,44.333 69.667 M65.863 66.611 C 65.847 66.993,65.785 67.443,65.725 67.611 C 65.643 67.844,65.666 67.872,65.819 67.732 C 65.942 67.618,65.996 67.232,65.957 66.732 C 65.894 65.927,65.893 65.926,65.863 66.611 M9.099 67.000 C 9.346 67.517,10.703 69.353,10.781 69.275 C 10.852 69.204,10.356 68.496,9.282 67.133 C 9.116 66.922,9.033 66.862,9.099 67.000 M55.487 67.654 C 55.219 67.922,55.000 68.241,55.001 68.362 C 55.001 68.484,55.149 68.342,55.329 68.046 C 55.509 67.751,55.827 67.472,56.036 67.428 C 56.246 67.383,56.567 67.315,56.750 67.276 C 56.941 67.235,56.847 67.197,56.529 67.186 C 56.122 67.172,55.844 67.297,55.487 67.654 M65.556 68.261 C 65.425 68.602,65.566 68.705,66.667 69.073 C 67.171 69.242,67.655 69.444,67.742 69.523 C 67.978 69.738,68.269 69.703,68.053 69.486 C 67.953 69.387,67.395 69.131,66.811 68.918 C 66.049 68.640,65.764 68.456,65.799 68.266 C 65.862 67.924,65.687 67.920,65.556 68.261 M23.167 68.740 C 23.167 69.066,23.242 69.333,23.333 69.333 C 23.425 69.333,23.500 69.113,23.500 68.843 C 23.500 68.574,23.425 68.307,23.333 68.250 C 23.234 68.189,23.167 68.387,23.167 68.740 M27.000 68.458 C 27.000 68.527,30.000 68.563,33.667 68.538 L 40.333 68.493 40.350 77.205 C 40.359 81.996,40.427 85.729,40.500 85.500 C 40.655 85.017,40.717 68.991,40.566 68.597 C 40.457 68.314,27.000 68.176,27.000 68.458 M55.000 69.258 C 55.000 69.910,56.088 70.512,57.203 70.478 C 57.852 70.458,57.826 70.445,56.924 70.330 C 56.107 70.226,55.849 70.111,55.466 69.682 C 55.209 69.396,55.000 69.205,55.000 69.258 M11.663 70.247 C 12.066 70.657,12.427 70.962,12.465 70.924 C 12.553 70.836,11.237 69.500,11.062 69.500 C 10.990 69.500,11.260 69.836,11.663 70.247 M68.417 69.773 C 68.826 70.185,69.999 71.014,69.995 70.889 C 69.989 70.744,69.593 70.433,68.750 69.914 C 68.475 69.744,68.325 69.681,68.417 69.773 M72.670 70.419 C 71.402 71.445,70.918 71.629,70.496 71.246 C 70.146 70.929,70.029 71.129,70.367 71.467 C 70.784 71.884,72.615 70.983,73.488 69.932 C 73.833 69.516,73.653 69.623,72.670 70.419 M58.752 70.850 C 59.118 71.042,59.712 71.473,60.073 71.808 C 60.568 72.266,60.666 72.315,60.472 72.004 C 60.166 71.513,58.743 70.500,58.359 70.500 C 58.210 70.500,58.387 70.657,58.752 70.850 M13.051 71.407 L 13.519 71.833 18.408 71.833 C 22.601 71.833,23.311 71.798,23.394 71.583 C 23.446 71.446,23.417 71.333,23.328 71.333 C 23.239 71.333,23.167 71.408,23.167 71.500 C 23.167 71.727,13.558 71.728,13.417 71.501 C 13.361 71.410,13.150 71.255,12.949 71.158 C 12.657 71.016,12.677 71.066,13.051 71.407 M63.841 71.770 C 63.845 71.942,63.958 72.308,64.092 72.583 C 64.352 73.117,64.329 72.617,64.062 71.920 C 63.836 71.332,65.986 72.016,67.382 72.976 C 68.663 73.857,69.068 74.546,68.877 75.514 C 68.788 75.965,68.769 76.333,68.836 76.333 C 68.971 76.333,69.167 75.499,69.167 74.929 C 69.167 74.261,67.646 72.783,66.340 72.181 C 64.825 71.483,63.830 71.319,63.841 71.770 M60.899 73.000 C 61.026 73.321,61.181 73.900,61.245 74.287 C 61.472 75.663,62.577 76.350,63.606 75.754 C 63.869 75.603,63.933 75.532,63.750 75.596 C 62.425 76.064,61.687 75.584,61.370 74.048 C 61.258 73.507,61.055 72.918,60.918 72.740 C 60.694 72.450,60.692 72.477,60.899 73.000 M64.362 74.008 C 64.346 74.517,64.243 75.023,64.133 75.133 C 63.981 75.285,63.981 75.333,64.130 75.333 C 64.399 75.333,64.535 74.704,64.457 73.820 C 64.395 73.121,64.390 73.130,64.362 74.008 M26.842 74.228 C 26.759 74.445,26.488 74.783,26.240 74.978 C 25.992 75.173,25.863 75.333,25.955 75.333 C 26.206 75.333,26.952 74.536,27.049 74.162 C 27.169 73.704,27.023 73.750,26.842 74.228 M31.296 74.926 C 31.046 75.062,30.755 75.340,30.649 75.545 C 30.491 75.851,30.551 75.828,30.989 75.417 C 31.772 74.682,32.834 74.701,33.514 75.461 L 34.000 76.005 34.000 80.250 L 34.000 84.495 33.514 85.039 L 33.028 85.583 28.903 85.667 C 25.811 85.729,24.760 85.802,24.708 85.958 C 24.670 86.073,24.708 86.167,24.793 86.167 C 24.877 86.167,25.032 86.354,25.136 86.583 C 25.633 87.672,27.769 89.456,29.295 90.054 C 30.448 90.507,30.331 90.377,28.967 89.692 C 27.104 88.756,25.000 86.768,25.000 85.944 C 25.000 85.883,26.732 85.833,28.849 85.833 C 34.436 85.833,34.167 86.116,34.167 80.258 C 34.167 75.739,34.104 75.401,33.172 74.919 C 32.562 74.604,31.886 74.606,31.296 74.926 M15.667 75.500 C 15.667 75.722,25.157 75.722,25.500 75.500 C 25.664 75.394,24.025 75.338,20.708 75.336 C 17.457 75.334,15.667 75.393,15.667 75.500 M15.681 76.261 C 15.592 78.414,18.368 82.024,20.075 81.977 L 20.917 81.953 20.042 81.847 C 18.460 81.655,16.506 79.265,15.906 76.788 C 15.790 76.309,15.689 76.072,15.681 76.261 M30.274 76.292 C 30.229 76.452,30.248 77.258,30.316 78.083 L 30.439 79.583 30.511 77.791 C 30.577 76.153,30.482 75.551,30.274 76.292 M46.695 77.325 C 47.386 77.705,47.801 78.232,48.295 79.361 C 48.617 80.096,49.391 80.831,49.612 80.611 C 49.667 80.555,49.519 80.435,49.281 80.345 C 48.855 80.183,48.333 79.411,48.333 78.941 C 48.333 78.575,46.975 77.202,46.500 77.089 C 46.197 77.017,46.250 77.081,46.695 77.325 M44.396 79.083 C 44.396 80.092,44.424 80.483,44.457 79.952 C 44.490 79.422,44.490 78.597,44.456 78.119 C 44.422 77.641,44.395 78.075,44.396 79.083 M67.812 78.792 C 67.603 79.135,67.023 79.848,66.523 80.375 C 66.024 80.902,65.673 81.333,65.743 81.333 C 65.974 81.333,67.583 79.539,67.972 78.848 C 68.452 77.994,68.327 77.949,67.812 78.792 M30.242 79.877 C 30.198 79.993,30.181 80.461,30.206 80.918 C 30.250 81.746,30.249 81.748,29.667 81.852 L 29.083 81.956 29.792 81.978 L 30.500 82.000 30.500 80.833 C 30.500 79.720,30.418 79.418,30.242 79.877 M44.388 83.833 C 44.419 86.608,44.443 86.796,44.866 87.703 C 45.300 88.634,46.710 90.333,47.049 90.333 C 47.142 90.333,46.851 89.977,46.401 89.542 C 45.534 88.702,45.094 87.955,44.708 86.667 C 44.667 86.529,44.600 85.292,44.559 83.917 C 44.455 80.400,44.348 80.348,44.388 83.833 M64.766 81.744 C 64.142 82.127,62.765 82.547,61.477 82.747 C 60.934 82.832,60.377 83.500,60.849 83.500 C 60.932 83.500,61.000 83.392,61.000 83.260 C 61.000 83.100,61.264 82.985,61.792 82.913 C 62.789 82.778,64.713 82.071,65.207 81.658 C 65.720 81.230,65.547 81.264,64.766 81.744 M22.458 81.955 C 22.848 81.990,23.485 81.990,23.875 81.955 C 24.265 81.920,23.946 81.892,23.167 81.892 C 22.387 81.892,22.069 81.920,22.458 81.955 M26.125 81.955 C 26.515 81.990,27.152 81.990,27.542 81.955 C 27.931 81.920,27.613 81.892,26.833 81.892 C 26.054 81.892,25.735 81.920,26.125 81.955 M60.589 84.292 C 60.211 86.349,58.350 88.520,55.984 89.665 C 54.550 90.358,54.391 90.583,55.744 90.002 C 57.593 89.210,59.379 87.558,60.162 85.917 C 60.609 84.980,60.974 83.667,60.787 83.667 C 60.741 83.667,60.652 83.948,60.589 84.292 M40.167 86.579 C 40.167 87.483,38.441 90.004,37.651 90.255 C 37.476 90.310,37.333 90.427,37.333 90.515 C 37.333 91.033,39.116 89.376,39.713 88.303 C 40.134 87.548,40.476 86.333,40.269 86.333 C 40.213 86.333,40.167 86.444,40.167 86.579 M30.750 90.575 C 31.307 90.814,32.639 91.086,32.484 90.929 C 32.378 90.822,30.565 90.324,30.367 90.347 C 30.303 90.354,30.475 90.457,30.750 90.575 M47.333 90.425 C 47.333 90.561,48.522 91.033,48.619 90.936 C 48.665 90.890,48.423 90.736,48.081 90.593 C 47.393 90.306,47.333 90.292,47.333 90.425 M53.388 90.565 C 52.745 90.738,52.243 91.010,52.597 90.993 C 52.922 90.977,54.323 90.566,54.436 90.453 C 54.593 90.296,54.245 90.333,53.388 90.565 M33.000 91.016 C 33.563 91.175,35.703 91.192,35.942 91.039 C 36.048 90.972,35.335 90.913,34.359 90.907 C 33.382 90.902,32.771 90.951,33.000 91.016 M49.128 91.029 C 49.504 91.178,51.298 91.168,51.833 91.014 C 52.065 90.947,51.494 90.898,50.545 90.904 C 49.607 90.910,48.969 90.966,49.128 91.029 " stroke="none" fill="#949494" fill-rule="evenodd"></path></g></svg>