<svg id="svg" version="1.1" xmlns="http://www.w3.org/2000/svg" xmlns:xlink="http://www.w3.org/1999/xlink" width="400" height="96" viewBox="0, 0, 400,96"><g id="svgg"><path id="path0" d="M42.500 10.419 C 39.229 11.222,35.810 14.140,34.937 16.875 C 34.886 17.035,34.715 17.167,34.558 17.167 C 33.351 17.167,30.910 18.614,29.973 19.885 C 28.704 21.607,28.667 21.812,28.667 27.088 L 28.667 31.833 36.489 31.833 C 41.267 31.833,44.481 31.898,44.747 31.999 C 45.588 32.318,45.667 32.856,45.667 38.245 L 45.667 43.167 46.083 43.167 L 46.500 43.167 46.500 37.750 L 46.500 32.333 48.250 32.333 L 50.000 32.333 49.997 28.042 C 49.996 25.681,49.935 23.655,49.861 23.540 C 49.757 23.375,48.409 23.339,43.688 23.373 L 37.649 23.417 37.616 25.109 C 37.578 27.080,37.222 27.667,36.067 27.667 C 34.749 27.667,34.438 26.812,34.525 23.431 C 34.606 20.314,34.635 20.283,37.712 20.167 L 39.917 20.083 40.000 17.693 C 40.093 15.034,40.343 14.500,41.500 14.500 C 42.671 14.500,42.911 15.027,42.971 17.739 L 43.025 20.173 46.471 20.128 L 49.917 20.083 49.909 16.833 C 49.901 13.173,49.776 12.657,48.608 11.484 C 47.444 10.314,44.803 9.854,42.500 10.419 M56.217 10.477 C 54.901 10.932,54.069 11.589,53.589 12.552 L 53.167 13.399 53.167 22.866 L 53.167 32.333 54.333 32.333 L 55.500 32.333 55.500 37.762 L 55.500 43.191 56.958 43.095 C 58.703 42.980,58.886 42.980,62.875 43.096 C 65.813 43.182,66.000 43.169,66.005 42.885 C 66.024 41.811,68.366 40.921,70.142 41.313 C 70.660 41.427,71.158 41.537,71.250 41.557 C 71.799 41.676,73.028 42.424,73.639 43.012 C 74.436 43.778,74.673 43.772,75.161 42.969 C 75.605 42.240,75.731 41.242,75.495 40.333 C 74.828 37.772,75.513 36.990,77.589 37.941 C 78.811 38.500,80.645 38.678,80.984 38.269 C 81.313 37.872,81.423 35.206,81.169 33.777 C 80.608 30.620,78.353 27.799,75.318 26.459 L 74.163 25.949 74.267 24.927 C 74.539 22.278,73.201 19.549,70.976 18.213 C 70.046 17.654,68.545 17.119,68.438 17.308 C 68.405 17.368,68.289 17.691,68.180 18.027 C 67.564 19.941,65.705 22.064,63.894 22.920 C 63.033 23.328,62.835 23.545,63.147 23.738 C 63.707 24.084,64.071 25.459,64.099 27.329 C 64.120 28.760,64.184 29.269,64.355 29.352 C 64.481 29.413,64.880 29.603,65.243 29.773 C 66.968 30.584,67.809 32.162,66.948 32.971 C 66.391 33.494,65.808 33.425,64.988 32.740 C 63.387 31.402,61.908 31.190,60.417 32.084 C 58.917 32.982,58.194 32.962,57.862 32.011 C 57.514 31.011,58.071 30.283,59.708 29.596 C 61.594 28.804,61.469 28.905,61.593 28.078 C 61.806 26.654,61.016 24.333,60.317 24.333 C 59.894 24.333,59.000 23.173,59.000 22.624 C 59.000 21.698,59.417 21.334,60.669 21.164 C 62.577 20.905,63.769 20.311,64.599 19.204 C 64.856 18.863,65.119 18.546,65.184 18.500 C 65.813 18.055,66.206 14.816,65.760 13.748 C 64.756 11.345,59.208 9.443,56.217 10.477 M24.477 28.649 C 23.578 29.589,22.000 31.848,22.000 32.195 C 22.000 32.326,21.924 32.509,21.831 32.602 C 21.023 33.410,20.632 38.536,21.217 40.655 L 21.467 41.559 20.975 42.050 C 17.108 45.918,16.630 52.576,19.862 57.563 L 20.250 58.163 24.042 58.165 L 27.833 58.167 27.846 57.708 C 27.890 56.172,27.814 52.271,27.738 52.147 C 27.688 52.066,26.558 52.000,25.227 52.000 L 22.808 52.000 22.321 51.513 C 21.677 50.869,21.676 50.204,22.317 49.518 L 22.800 49.000 25.317 49.000 L 27.833 49.000 27.833 45.275 C 27.833 41.318,27.927 40.695,28.590 40.261 C 29.081 39.939,37.363 39.869,38.048 40.181 C 39.087 40.654,39.219 41.979,38.303 42.750 L 37.797 43.176 40.190 43.130 L 42.583 43.083 42.628 39.188 C 42.660 36.454,42.616 35.223,42.483 35.063 C 42.326 34.874,40.884 34.833,34.339 34.833 C 24.661 34.833,25.782 35.324,25.667 31.038 C 25.572 27.538,25.561 27.515,24.477 28.649 M78.167 41.558 C 78.167 43.360,76.685 45.680,74.957 46.584 C 73.860 47.159,73.312 46.986,72.697 45.871 C 71.794 44.235,69.992 43.517,68.144 44.059 C 67.387 44.281,67.190 44.286,66.805 44.094 C 66.164 43.774,66.167 43.763,66.167 46.869 L 66.167 49.683 66.677 49.897 C 68.258 50.562,68.967 55.630,67.728 57.412 C 67.414 57.865,67.442 58.325,67.792 58.440 C 69.326 58.944,70.582 60.117,71.130 61.556 C 71.547 62.652,71.648 64.785,71.300 65.133 C 71.019 65.414,71.254 65.600,72.377 65.986 C 73.317 66.310,74.295 66.909,75.234 67.739 C 75.501 67.974,75.780 68.167,75.856 68.167 C 76.431 68.167,79.500 65.496,79.500 64.995 C 79.500 64.906,79.556 64.833,79.625 64.833 C 79.893 64.833,80.906 62.502,81.167 61.283 C 81.301 60.658,81.290 60.433,81.117 60.260 C 80.745 59.888,79.555 59.342,78.714 59.157 C 77.656 58.925,77.223 58.372,77.434 57.522 C 77.725 56.349,79.186 56.280,81.229 57.343 C 82.408 57.957,82.491 57.933,83.132 56.804 C 85.826 52.063,85.095 45.474,81.438 41.542 C 80.948 41.014,80.898 41.000,79.551 41.000 L 78.167 41.000 78.167 41.558 M31.000 51.392 C 31.000 62.337,31.564 61.215,26.000 61.333 L 22.083 61.417 22.104 61.927 C 22.123 62.365,22.903 64.253,23.168 64.500 C 23.217 64.546,23.401 64.808,23.576 65.083 C 24.041 65.813,25.417 67.230,26.161 67.746 L 26.806 68.193 30.915 68.195 C 33.176 68.197,35.070 68.153,35.125 68.098 C 35.180 68.042,35.217 67.042,35.207 65.874 C 35.174 62.010,34.905 62.167,41.578 62.167 L 46.500 62.167 46.500 60.000 L 46.500 57.833 41.525 57.833 C 34.693 57.833,35.146 58.259,35.228 51.917 C 35.256 49.741,35.340 48.457,35.469 48.219 C 35.596 47.986,35.667 46.984,35.667 45.428 L 35.667 43.000 33.333 43.000 L 31.000 43.000 31.000 51.392 M38.333 53.333 L 38.333 54.667 42.417 54.667 L 46.500 54.667 46.500 53.333 L 46.500 52.000 42.417 52.000 L 38.333 52.000 38.333 53.333 M55.500 57.417 L 55.500 62.833 54.333 62.833 L 53.167 62.833 53.167 66.391 L 53.167 69.949 54.073 69.978 C 56.441 70.056,58.418 71.608,59.021 73.863 C 59.560 75.879,57.322 76.334,56.484 74.379 C 55.971 73.183,54.979 72.500,53.755 72.500 L 53.167 72.500 53.167 76.669 C 53.167 78.962,53.234 80.968,53.316 81.127 C 53.398 81.286,53.590 81.717,53.743 82.083 C 55.796 87.028,65.681 84.787,67.123 79.050 C 67.280 78.427,67.418 77.896,67.431 77.870 C 67.444 77.844,67.860 77.757,68.355 77.677 C 71.536 77.159,74.333 74.032,74.333 70.995 C 74.333 69.996,72.132 68.329,70.454 68.057 C 69.760 67.944,69.720 68.028,70.003 69.001 C 70.438 70.498,70.234 71.393,69.410 71.600 C 68.791 71.755,68.014 71.372,67.898 70.854 C 67.578 69.427,67.411 69.014,66.898 68.386 C 66.151 67.471,65.492 67.142,64.124 66.999 C 62.439 66.824,61.775 65.701,62.768 64.708 C 63.425 64.051,66.099 64.503,67.513 65.509 L 67.988 65.847 68.501 65.139 C 70.500 62.380,66.943 59.470,64.094 61.533 C 63.017 62.314,62.000 61.807,62.000 60.490 C 62.000 59.904,62.073 59.803,62.875 59.269 C 65.272 57.676,66.599 54.237,65.536 52.375 L 65.322 52.000 60.411 52.000 L 55.500 52.000 55.500 57.417 M38.333 67.598 C 38.333 71.419,38.461 71.333,32.717 71.333 L 28.500 71.333 28.500 71.731 C 28.500 73.027,29.634 75.169,30.918 76.299 L 31.719 77.005 36.485 76.961 C 40.149 76.927,41.255 76.869,41.271 76.708 C 41.282 76.594,41.301 75.412,41.313 74.083 C 41.338 71.117,41.827 70.376,43.344 71.005 C 44.242 71.376,44.333 71.791,44.333 75.500 C 44.333 80.341,44.512 80.167,39.558 80.167 C 37.785 80.167,36.333 80.225,36.333 80.296 C 36.333 80.514,36.847 81.212,37.566 81.973 C 40.377 84.947,46.022 85.750,48.360 83.508 C 49.843 82.087,50.016 80.866,49.961 72.250 L 49.917 65.417 44.125 65.373 L 38.333 65.329 38.333 67.598 " stroke="none" fill="#747474" fill-rule="evenodd"></path><path id="path1" d="M199.500 15.192 C 199.500 19.328,199.485 19.539,199.208 19.302 C 197.442 17.787,193.960 17.865,191.626 19.471 C 186.887 22.731,187.169 33.189,192.060 35.579 C 194.209 36.629,197.149 36.168,199.066 34.481 C 199.475 34.121,199.842 33.884,199.883 33.955 C 199.923 34.025,200.044 34.356,200.151 34.688 C 200.499 35.770,200.798 35.908,202.933 35.976 L 204.833 36.036 204.833 23.435 L 204.833 10.833 202.167 10.833 L 199.500 10.833 199.500 15.192 M288.000 23.421 L 288.000 36.008 290.625 35.963 L 293.250 35.917 293.333 29.675 L 293.417 23.433 294.083 22.974 C 295.149 22.240,296.340 22.060,297.239 22.495 C 298.477 23.094,298.500 23.233,298.500 30.091 L 298.500 36.008 301.125 35.963 L 303.750 35.917 303.796 30.417 C 303.857 23.086,303.641 21.733,302.144 20.092 C 300.874 18.699,300.131 18.417,297.743 18.417 L 295.736 18.417 294.535 19.112 L 293.333 19.808 293.333 15.321 L 293.333 10.833 290.667 10.833 L 288.000 10.833 288.000 23.421 M258.876 11.509 C 255.487 12.178,253.144 14.929,253.030 18.371 C 252.894 22.492,254.482 24.304,259.500 25.750 C 262.883 26.725,263.583 27.283,263.583 29.000 C 263.583 31.825,260.385 32.472,256.789 30.375 C 254.670 29.139,254.212 29.265,252.873 31.448 C 251.859 33.103,251.839 33.018,253.500 34.089 C 260.761 38.771,269.227 35.318,268.972 27.779 C 268.852 24.222,267.503 22.844,262.486 21.153 C 259.013 19.982,258.333 19.505,258.333 18.242 C 258.333 15.822,261.168 15.059,264.296 16.637 C 266.474 17.736,266.716 17.644,268.053 15.213 L 268.806 13.842 268.014 13.260 C 265.845 11.668,261.902 10.913,258.876 11.509 M144.032 18.425 C 142.680 18.672,140.414 19.697,139.500 20.474 L 138.917 20.970 139.333 21.757 C 140.351 23.679,141.212 23.929,143.286 22.904 C 146.055 21.536,147.954 22.229,148.128 24.672 L 148.208 25.781 146.396 25.884 C 140.322 26.228,137.066 29.210,138.421 33.188 C 139.543 36.480,144.392 37.191,148.009 34.593 C 148.822 34.009,149.000 33.997,149.000 34.525 C 149.000 35.409,149.819 35.855,151.628 35.954 L 153.333 36.048 153.333 30.116 C 153.333 23.667,153.265 22.987,152.457 21.455 C 151.036 18.760,148.060 17.689,144.032 18.425 M235.190 18.358 C 234.315 18.610,233.460 19.221,232.540 20.253 L 231.695 21.201 231.574 20.237 C 231.379 18.669,231.104 18.500,228.758 18.500 L 226.833 18.500 226.833 27.250 L 226.833 36.000 229.417 36.000 L 232.000 36.000 232.000 30.692 L 232.000 25.383 232.476 24.733 C 233.454 23.397,234.167 23.081,235.912 23.213 C 236.731 23.275,237.231 23.240,237.410 23.109 C 237.701 22.896,238.439 19.182,238.275 18.755 C 238.084 18.257,236.328 18.031,235.190 18.358 M312.500 18.419 C 310.642 18.799,309.022 19.528,307.761 20.553 L 307.273 20.950 307.742 21.767 C 308.872 23.734,309.562 23.929,311.738 22.896 C 314.594 21.539,316.286 22.195,316.566 24.766 L 316.677 25.782 314.797 25.886 C 308.725 26.223,305.487 29.159,306.778 33.157 C 307.856 36.494,313.085 37.205,316.525 34.481 L 317.167 33.972 317.489 34.724 C 317.907 35.700,318.212 35.843,320.108 35.956 L 321.685 36.050 321.634 29.483 L 321.583 22.917 321.150 21.992 C 319.717 18.938,316.489 17.604,312.500 18.419 M330.333 18.442 C 328.974 18.706,326.749 19.712,325.855 20.467 L 325.294 20.941 325.689 21.679 C 326.783 23.722,327.525 23.947,329.727 22.901 C 332.566 21.553,334.500 22.322,334.500 24.800 L 334.500 25.783 332.625 25.890 C 326.651 26.234,323.385 29.297,324.791 33.236 C 325.950 36.484,331.150 37.153,334.516 34.487 L 335.167 33.972 335.489 34.724 C 335.907 35.699,336.212 35.843,338.099 35.955 L 339.667 36.049 339.663 29.983 C 339.660 26.589,339.586 23.602,339.494 23.201 C 338.604 19.344,335.088 17.517,330.333 18.442 M351.537 18.412 C 350.522 18.729,349.354 19.657,348.504 20.824 L 348.207 21.231 348.104 20.699 C 348.047 20.406,347.956 19.938,347.902 19.659 C 347.710 18.667,347.323 18.500,345.219 18.500 L 343.333 18.500 343.333 27.250 L 343.333 36.000 345.917 36.000 L 348.500 36.000 348.500 30.663 L 348.500 25.326 348.914 24.705 C 349.660 23.587,350.355 23.253,351.989 23.227 C 352.774 23.215,353.545 23.196,353.702 23.186 C 353.885 23.174,354.046 22.942,354.150 22.542 C 354.284 22.027,354.833 18.992,354.833 18.768 C 354.833 18.298,352.656 18.062,351.537 18.412 M164.388 18.642 C 163.915 18.806,163.112 19.253,162.604 19.636 L 161.682 20.333 161.572 19.747 C 161.379 18.718,160.895 18.500,158.811 18.500 L 157.000 18.500 157.000 27.167 L 157.000 35.833 159.583 35.833 L 162.167 35.833 162.167 29.675 L 162.167 23.516 162.906 23.008 C 163.913 22.314,165.049 22.069,165.901 22.361 C 167.352 22.857,167.500 23.615,167.500 30.523 L 167.500 35.833 170.083 35.833 L 172.667 35.833 172.667 29.939 C 172.667 23.548,172.592 22.783,171.818 21.201 C 170.626 18.764,167.326 17.627,164.388 18.642 M213.667 18.550 C 205.574 20.849,205.456 33.007,213.500 35.765 C 216.327 36.734,221.012 35.834,223.132 33.914 L 223.908 33.211 223.176 32.262 C 221.889 30.595,221.547 30.516,219.662 31.452 C 216.481 33.032,213.402 31.812,212.948 28.792 L 212.854 28.167 218.082 28.167 C 224.421 28.167,224.168 28.281,223.942 25.521 C 223.686 22.384,222.295 20.220,219.745 18.993 C 218.402 18.347,215.203 18.113,213.667 18.550 M276.875 18.510 C 269.570 19.950,268.386 32.065,275.225 35.386 C 278.311 36.885,283.267 36.028,285.483 33.612 L 285.882 33.177 285.163 32.245 C 283.918 30.631,283.402 30.487,282.122 31.397 C 278.965 33.642,276.087 31.581,276.099 27.083 C 276.109 22.902,278.431 21.164,281.856 22.771 C 283.504 23.544,283.747 23.486,284.829 22.056 C 285.838 20.723,285.832 20.823,284.958 20.115 C 283.038 18.557,279.846 17.924,276.875 18.510 M118.667 18.535 C 118.667 18.567,119.045 19.566,119.508 20.755 C 119.971 21.944,120.755 23.967,121.250 25.250 C 121.745 26.533,122.500 28.483,122.928 29.583 C 123.356 30.683,123.837 31.921,123.998 32.333 C 124.158 32.746,124.541 33.740,124.848 34.542 L 125.407 36.000 127.765 36.000 L 130.122 36.000 131.168 33.292 C 131.743 31.802,132.343 30.246,132.501 29.833 C 132.659 29.421,133.095 28.296,133.469 27.333 C 135.007 23.382,136.833 18.620,136.833 18.562 C 136.833 18.528,135.788 18.500,134.509 18.500 C 131.550 18.500,131.604 18.461,130.687 21.333 C 130.321 22.479,129.567 24.833,129.011 26.564 C 128.455 28.296,128.000 29.867,128.000 30.056 C 128.000 30.691,127.707 30.108,127.344 28.750 C 127.148 28.017,126.660 26.367,126.258 25.083 C 125.857 23.800,125.287 21.962,124.991 21.000 C 124.227 18.511,124.353 18.594,121.246 18.530 C 119.827 18.501,118.667 18.503,118.667 18.535 M197.667 22.180 C 198.079 22.274,198.660 22.516,198.957 22.717 L 199.498 23.083 199.499 26.844 L 199.500 30.604 199.042 31.033 C 196.876 33.059,194.339 32.230,193.820 29.326 C 193.098 25.282,194.278 22.419,196.833 22.021 C 196.879 22.014,197.254 22.085,197.667 22.180 M217.852 22.364 C 218.553 22.758,219.167 23.779,219.167 24.553 L 219.167 25.000 216.083 25.000 C 212.606 25.000,212.719 25.052,213.324 23.719 C 214.051 22.118,216.246 21.461,217.852 22.364 M148.167 30.175 L 148.167 31.330 147.292 31.904 C 145.366 33.166,143.167 32.777,143.167 31.172 C 143.167 29.930,144.311 29.207,146.583 29.015 C 148.257 28.874,148.167 28.807,148.167 30.175 M316.667 29.997 C 316.667 30.990,316.619 31.149,316.208 31.533 C 314.523 33.110,311.500 32.917,311.500 31.232 C 311.500 29.743,312.957 29.057,316.458 28.898 C 316.605 28.892,316.667 29.216,316.667 29.997 M334.216 31.538 C 332.727 33.185,329.500 32.900,329.500 31.121 C 329.500 29.901,330.749 29.181,333.167 29.007 L 334.417 28.917 334.466 30.062 C 334.506 30.977,334.455 31.273,334.216 31.538 M46.667 37.711 L 46.667 43.089 41.250 43.086 L 35.833 43.083 35.831 45.333 C 35.829 46.571,35.773 47.669,35.706 47.775 C 35.638 47.880,35.606 48.874,35.635 49.983 L 35.686 52.000 41.183 52.000 L 46.681 52.000 46.632 53.292 L 46.583 54.583 42.500 54.671 L 38.417 54.759 42.458 54.796 L 46.500 54.833 46.500 56.250 L 46.500 57.667 41.542 57.705 L 36.583 57.743 41.583 57.830 L 46.583 57.917 46.579 60.375 L 46.574 62.833 51.037 62.833 L 55.500 62.833 55.500 57.417 L 55.500 52.000 60.885 52.000 L 66.270 52.000 66.260 47.542 L 66.250 43.083 63.486 43.136 C 61.965 43.164,60.218 43.121,59.604 43.038 C 58.989 42.956,58.447 42.951,58.400 43.028 C 58.352 43.104,57.681 43.167,56.907 43.167 L 55.500 43.167 55.500 37.750 L 55.500 32.333 51.083 32.333 L 46.667 32.333 46.667 37.711 M174.167 39.333 L 174.167 41.000 180.833 41.000 L 187.500 41.000 187.500 39.333 L 187.500 37.667 180.833 37.667 L 174.167 37.667 174.167 39.333 M238.667 39.333 L 238.667 41.000 245.250 41.000 L 251.833 41.000 251.833 39.333 L 251.833 37.667 245.250 37.667 L 238.667 37.667 238.667 39.333 M118.000 50.956 C 118.000 51.045,118.192 51.635,118.428 52.267 C 118.663 52.899,119.064 53.979,119.320 54.667 C 119.575 55.354,120.781 58.542,121.999 61.750 C 123.217 64.958,124.423 68.146,124.679 68.833 C 124.935 69.521,125.305 70.496,125.502 71.000 C 125.698 71.504,126.036 72.404,126.252 73.000 C 127.748 77.123,128.112 77.500,130.596 77.500 C 132.412 77.500,132.345 77.619,131.593 75.707 C 131.278 74.906,130.839 73.762,130.619 73.167 C 130.398 72.571,129.557 70.358,128.749 68.250 C 127.942 66.142,127.041 63.779,126.749 63.000 C 126.457 62.221,125.557 59.858,124.750 57.750 C 123.942 55.642,123.178 53.626,123.052 53.272 C 122.374 51.375,121.768 50.958,119.548 50.861 C 118.610 50.820,118.000 50.857,118.000 50.956 M140.500 63.750 L 140.500 76.000 147.833 76.000 L 155.167 76.000 155.167 73.667 L 155.167 71.333 150.667 71.333 L 146.167 71.333 146.167 61.417 L 146.167 51.500 143.333 51.500 L 140.500 51.500 140.500 63.750 M165.015 51.875 C 164.717 52.653,163.612 55.484,162.917 57.250 C 162.521 58.258,161.883 59.908,161.500 60.917 C 161.117 61.925,160.396 63.800,159.898 65.083 C 158.905 67.639,158.418 68.897,157.252 71.917 C 156.828 73.017,156.335 74.268,156.157 74.698 C 155.604 76.031,155.563 76.001,157.875 75.996 C 161.471 75.989,161.598 75.904,162.687 72.788 L 163.458 70.583 168.041 70.539 L 172.624 70.495 172.803 70.956 C 172.902 71.209,173.222 72.129,173.514 73.000 C 174.476 75.867,174.473 75.865,177.875 75.965 C 180.660 76.046,180.526 76.134,179.932 74.612 C 179.540 73.606,178.707 71.458,177.903 69.375 C 177.681 68.802,177.318 67.865,177.096 67.292 C 176.264 65.146,174.799 61.360,174.176 59.750 C 173.010 56.732,171.987 54.103,171.468 52.792 L 170.958 51.500 168.058 51.500 C 165.205 51.500,165.156 51.506,165.015 51.875 M182.333 63.757 L 182.333 76.042 188.125 75.952 C 194.419 75.855,195.022 75.780,197.087 74.844 C 202.496 72.391,202.498 64.734,197.091 63.429 L 196.598 63.310 197.478 62.860 C 201.988 60.552,201.488 54.061,196.667 52.343 C 194.770 51.668,194.337 51.627,188.292 51.548 L 182.333 51.471 182.333 63.757 M193.697 56.301 C 195.268 57.272,195.234 60.303,193.641 61.247 C 193.166 61.529,192.706 61.587,190.542 61.640 L 188.000 61.702 188.000 58.748 L 188.000 55.793 190.548 55.861 C 192.823 55.922,193.161 55.970,193.697 56.301 M169.730 66.464 C 168.880 66.490,167.437 66.490,166.524 66.464 L 164.863 66.417 166.108 62.750 C 166.792 60.733,167.510 58.575,167.704 57.953 L 168.055 56.823 169.665 61.620 L 171.275 66.417 169.730 66.464 M22.125 58.291 C 23.156 58.320,24.844 58.320,25.875 58.291 C 26.906 58.262,26.063 58.238,24.000 58.238 C 21.938 58.238,21.094 58.262,22.125 58.291 M194.120 66.026 C 195.924 66.955,196.015 69.767,194.279 70.944 C 193.593 71.410,193.543 71.417,190.792 71.469 L 188.000 71.522 188.000 68.486 L 188.000 65.450 190.681 65.543 C 193.058 65.626,193.448 65.681,194.120 66.026 M63.542 66.948 C 63.702 66.990,63.965 66.990,64.125 66.948 C 64.285 66.906,64.154 66.872,63.833 66.872 C 63.512 66.872,63.381 66.906,63.542 66.948 " stroke="none" fill="#e4e4e4" fill-rule="evenodd"></path><path id="path2" d="M37.559 25.083 C 37.559 25.908,37.587 26.267,37.622 25.880 C 37.657 25.493,37.657 24.818,37.623 24.380 C 37.588 23.942,37.560 24.258,37.559 25.083 M46.575 37.750 C 46.575 40.775,46.597 42.036,46.625 40.552 C 46.652 39.068,46.652 36.593,46.625 35.052 C 46.597 33.511,46.575 34.725,46.575 37.750 M68.877 41.286 C 69.131 41.325,69.506 41.324,69.711 41.284 C 69.916 41.244,69.708 41.213,69.250 41.214 C 68.792 41.216,68.624 41.248,68.877 41.286 M35.733 45.333 C 35.733 46.663,35.759 47.206,35.790 46.542 C 35.822 45.877,35.822 44.790,35.790 44.125 C 35.759 43.460,35.733 44.004,35.733 45.333 M46.557 53.250 C 46.558 53.983,46.587 54.263,46.622 53.871 C 46.657 53.479,46.657 52.879,46.621 52.537 C 46.585 52.196,46.557 52.517,46.557 53.250 M46.564 60.000 C 46.564 61.146,46.591 61.615,46.623 61.042 C 46.656 60.469,46.656 59.531,46.623 58.958 C 46.591 58.385,46.564 58.854,46.564 60.000 M28.044 68.286 C 28.297 68.325,28.672 68.324,28.877 68.284 C 29.082 68.244,28.875 68.213,28.417 68.214 C 27.958 68.216,27.791 68.248,28.044 68.286 M30.213 68.289 C 30.652 68.324,31.327 68.323,31.713 68.288 C 32.100 68.254,31.742 68.225,30.917 68.226 C 30.092 68.226,29.775 68.255,30.213 68.289 M33.121 68.287 C 33.417 68.324,33.942 68.324,34.288 68.288 C 34.634 68.252,34.392 68.222,33.750 68.221 C 33.108 68.221,32.825 68.250,33.121 68.287 " stroke="none" fill="#cccccc" fill-rule="evenodd"></path></g></svg>